# Blender 4.1.1
# www.blender.org
mtllib playerArm.mtl
o 立方体.003
v 1.641255 0.204699 1.380334
v 1.262162 0.204699 2.298416
v 1.641255 -0.204699 1.380334
v 1.262162 -0.204699 2.298416
v 1.316604 0.204699 1.246280
v 0.937511 0.204699 2.164362
v 1.316604 -0.204699 1.246280
v 0.937511 -0.204699 2.164362
v -1.316601 0.204699 1.246280
v -0.937509 0.204699 2.164362
v -1.316601 -0.204699 1.246280
v -0.937509 -0.204699 2.164362
v -1.641252 0.204699 1.380334
v -1.262159 0.204699 2.298416
v -1.641252 -0.204699 1.380334
v -1.262159 -0.204699 2.298416
v 1.718362 -0.000000 1.294430
v 1.487280 0.249556 1.854063
v 1.256197 0.000000 2.413696
v 1.487280 -0.249556 1.854063
v 1.520466 -0.249556 1.212715
v 1.058300 -0.249556 2.331981
v 1.091486 -0.249556 1.690633
v 1.322569 -0.000000 1.130999
v 0.860404 -0.000000 2.250266
v 1.091486 0.249556 1.690633
v 1.520465 0.249556 1.212715
v 1.058300 0.249556 2.331981
v -1.322566 -0.000000 1.130999
v -1.091483 0.249556 1.690633
v -0.860401 0.000000 2.250266
v -1.091483 -0.249556 1.690633
v -1.520462 -0.249556 1.212714
v -1.058298 -0.249556 2.331981
v -1.487277 -0.249556 1.854063
v -1.718359 -0.000000 1.294430
v -1.256194 -0.000000 2.413696
v -1.487277 0.249556 1.854063
v -1.520463 0.249556 1.212715
v -1.058298 0.249556 2.331981
v 1.561929 -0.000000 1.884887
v 1.289383 -0.343692 1.772348
v 1.016837 -0.000000 1.659809
v 1.289383 0.343692 1.772348
v 1.607633 -0.000000 1.001612
v 0.971132 -0.000000 2.543083
v -1.016834 -0.000000 1.659809
v -1.289380 -0.343692 1.772348
v -1.561926 -0.000000 1.884887
v -1.289380 0.343692 1.772348
v -1.607630 -0.000000 1.001612
v -0.971130 -0.000000 2.543083
vn 0.9363 0.2486 0.2481
vn 0.8363 0.3063 0.4546
vn 0.8363 -0.3063 0.4546
vn 0.9363 -0.2486 0.2481
vn 0.3589 -0.9334 -0.0088
vn 0.3265 -0.9095 0.2572
vn -0.4128 -0.9095 -0.0481
vn -0.2481 -0.9334 -0.2594
vn -0.8385 -0.2486 -0.4848
vn -0.9135 -0.3063 -0.2679
vn -0.9135 0.3063 -0.2679
vn -0.8385 0.2486 -0.4848
vn -0.2481 0.9334 -0.2594
vn -0.4128 0.9095 -0.0481
vn 0.3265 0.9095 0.2572
vn 0.3589 0.9334 -0.0088
vn 0.7708 -0.4706 -0.4295
vn -0.3503 -0.5306 -0.7719
vn -0.3503 0.5306 -0.7719
vn 0.7708 0.4706 -0.4295
vn -0.7708 -0.4706 0.4295
vn 0.3503 -0.5306 0.7719
vn 0.3503 0.5306 0.7719
vn -0.7708 0.4706 0.4295
vn 0.8385 0.2486 -0.4848
vn 0.9135 0.3063 -0.2679
vn 0.9135 -0.3063 -0.2679
vn 0.8385 -0.2486 -0.4848
vn 0.2481 -0.9334 -0.2594
vn 0.4128 -0.9095 -0.0481
vn -0.3265 -0.9095 0.2572
vn -0.3589 -0.9334 -0.0088
vn -0.9363 -0.2486 0.2481
vn -0.8363 -0.3063 0.4546
vn -0.8363 0.3063 0.4546
vn -0.9363 0.2486 0.2481
vn -0.3589 0.9334 -0.0088
vn -0.3265 0.9095 0.2572
vn 0.4128 0.9095 -0.0481
vn 0.2481 0.9334 -0.2594
vn 0.2432 -0.4706 -0.8482
vn -0.7929 -0.5306 -0.2998
vn -0.7929 0.5306 -0.2998
vn 0.2432 0.4706 -0.8482
vn -0.2432 -0.4706 0.8482
vn 0.7929 -0.5306 0.2998
vn 0.7929 0.5306 0.2998
vn -0.2432 0.4706 0.8482
vn 0.9135 0.3063 0.2679
vn 0.8385 0.2486 0.4848
vn 0.8385 -0.2486 0.4848
vn 0.9135 -0.3063 0.2679
vn 0.4128 -0.9095 0.0481
vn 0.2481 -0.9334 0.2594
vn -0.3589 -0.9334 0.0088
vn -0.3265 -0.9095 -0.2572
vn -0.8363 -0.3063 -0.4546
vn -0.9363 -0.2486 -0.2481
vn -0.9363 0.2486 -0.2481
vn -0.8363 0.3063 -0.4546
vn -0.3265 0.9095 -0.2572
vn -0.3589 0.9334 0.0088
vn 0.2481 0.9334 0.2594
vn 0.4128 0.9095 0.0481
vn 0.7929 -0.5306 -0.2998
vn -0.2432 -0.4706 -0.8482
vn -0.2432 0.4706 -0.8482
vn 0.7929 0.5306 -0.2998
vn -0.7929 -0.5306 0.2998
vn 0.2432 -0.4706 0.8482
vn 0.2432 0.4706 0.8482
vn -0.7929 0.5306 0.2998
vn 0.8363 0.3063 -0.4546
vn 0.9363 0.2486 -0.2481
vn 0.9363 -0.2486 -0.2481
vn 0.8363 -0.3063 -0.4546
vn 0.3265 -0.9095 -0.2572
vn 0.3589 -0.9334 0.0088
vn -0.2481 -0.9334 0.2594
vn -0.4128 -0.9095 0.0481
vn -0.9135 -0.3063 0.2679
vn -0.8385 -0.2486 0.4848
vn -0.8385 0.2486 0.4848
vn -0.9135 0.3063 0.2679
vn -0.4128 0.9095 0.0481
vn -0.2481 0.9334 0.2594
vn 0.3589 0.9334 0.0088
vn 0.3265 0.9095 -0.2572
vn 0.3503 -0.5306 -0.7719
vn -0.7708 -0.4706 -0.4295
vn -0.7708 0.4706 -0.4295
vn 0.3503 0.5306 -0.7719
vn -0.3503 -0.5306 0.7719
vn 0.7708 -0.4706 0.4295
vn 0.7708 0.4706 0.4295
vn -0.3503 0.5306 0.7719
vt 0.201577 0.006738
vt 0.298530 0.103691
vt 0.201577 0.103691
vt 0.395482 0.006738
vt 0.298530 0.006738
vt 0.395482 0.200644
vt 0.298530 0.200644
vt 0.201577 0.200644
vt 0.298530 0.297596
vt 0.201577 0.297596
vt 0.395482 0.394549
vt 0.298530 0.394549
vt 0.201577 0.394549
vt 0.298530 0.491502
vt 0.201577 0.491502
vt 0.395482 0.588454
vt 0.298530 0.588454
vt 0.201577 0.588454
vt 0.298530 0.685407
vt 0.201577 0.685407
vt 0.395482 0.782360
vt 0.298530 0.782360
vt 0.201577 0.782360
vt 0.104624 0.394549
vt 0.007672 0.491502
vt 0.007672 0.394549
vt 0.104624 0.491502
vt 0.104624 0.588454
vt 0.007672 0.588454
vt 0.492435 0.394549
vt 0.395482 0.491502
vt 0.589388 0.491502
vt 0.492435 0.491502
vt 0.492435 0.588454
vt 0.605472 0.217662
vt 0.702425 0.314614
vt 0.605472 0.314614
vt 0.799378 0.217662
vt 0.702425 0.217662
vt 0.799378 0.411567
vt 0.702425 0.411567
vt 0.605472 0.411567
vt 0.702425 0.508520
vt 0.605472 0.508520
vt 0.799378 0.605472
vt 0.702425 0.605472
vt 0.605472 0.605472
vt 0.702425 0.702425
vt 0.605472 0.702425
vt 0.799378 0.799378
vt 0.702425 0.799378
vt 0.605472 0.799378
vt 0.702425 0.896330
vt 0.605472 0.896330
vt 0.799378 0.993283
vt 0.702425 0.993283
vt 0.605472 0.993283
vt 0.508520 0.605472
vt 0.411567 0.702425
vt 0.411567 0.605472
vt 0.508520 0.702425
vt 0.508520 0.799378
vt 0.411567 0.799378
vt 0.896330 0.605472
vt 0.799378 0.702425
vt 0.993283 0.702425
vt 0.896330 0.702425
vt 0.896330 0.799378
vt 0.395482 0.103691
vt 0.395482 0.297596
vt 0.395482 0.685407
vt 0.589388 0.394549
vt 0.589388 0.588454
vt 0.799378 0.314614
vt 0.799378 0.508520
vt 0.799378 0.896330
vt 0.993283 0.605472
vt 0.993283 0.799378
s 0
usemtl マテリアル
f 1/1/1 41/2/1 17/3/1
f 2/4/2 41/2/2 18/5/2
f 41/2/3 4/6/3 20/7/3
f 41/2/4 3/8/4 17/3/4
f 3/8/5 42/9/5 21/10/5
f 4/6/6 42/9/6 20/7/6
f 42/9/7 8/11/7 23/12/7
f 42/9/8 7/13/8 21/10/8
f 7/13/9 43/14/9 24/15/9
f 8/11/10 43/14/10 23/12/10
f 43/14/11 6/16/11 26/17/11
f 43/14/12 5/18/12 24/15/12
f 5/18/13 44/19/13 27/20/13
f 6/16/14 44/19/14 26/17/14
f 44/19/15 2/21/15 18/22/15
f 44/19/16 1/23/16 27/20/16
f 21/24/17 17/25/17 3/26/17
f 21/24/18 24/15/18 45/27/18
f 24/15/19 27/28/19 45/27/19
f 17/25/20 27/28/20 1/29/20
f 22/30/21 25/31/21 8/11/21
f 22/30/22 19/32/22 46/33/22
f 19/32/23 28/34/23 46/33/23
f 25/31/24 28/34/24 6/16/24
f 9/35/25 47/36/25 29/37/25
f 10/38/26 47/36/26 30/39/26
f 47/36/27 12/40/27 32/41/27
f 47/36/28 11/42/28 29/37/28
f 11/42/29 48/43/29 33/44/29
f 12/40/30 48/43/30 32/41/30
f 48/43/31 16/45/31 35/46/31
f 48/43/32 15/47/32 33/44/32
f 15/47/33 49/48/33 36/49/33
f 16/45/34 49/48/34 35/46/34
f 49/48/35 14/50/35 38/51/35
f 49/48/36 13/52/36 36/49/36
f 13/52/37 50/53/37 39/54/37
f 14/50/38 50/53/38 38/51/38
f 50/53/39 10/55/39 30/56/39
f 50/53/40 9/57/40 39/54/40
f 33/58/41 29/59/41 11/60/41
f 33/58/42 36/49/42 51/61/42
f 36/49/43 39/62/43 51/61/43
f 29/59/44 39/62/44 9/63/44
f 34/64/45 37/65/45 16/45/45
f 34/64/46 31/66/46 52/67/46
f 31/66/47 40/68/47 52/67/47
f 37/65/48 40/68/48 14/50/48
f 1/1/49 18/5/49 41/2/49
f 2/4/50 19/69/50 41/2/50
f 41/2/51 19/69/51 4/6/51
f 41/2/52 20/7/52 3/8/52
f 3/8/53 20/7/53 42/9/53
f 4/6/54 22/70/54 42/9/54
f 42/9/55 22/70/55 8/11/55
f 42/9/56 23/12/56 7/13/56
f 7/13/57 23/12/57 43/14/57
f 8/11/58 25/31/58 43/14/58
f 43/14/59 25/31/59 6/16/59
f 43/14/60 26/17/60 5/18/60
f 5/18/61 26/17/61 44/19/61
f 6/16/62 28/71/62 44/19/62
f 44/19/63 28/71/63 2/21/63
f 44/19/64 18/22/64 1/23/64
f 21/24/65 45/27/65 17/25/65
f 21/24/66 7/13/66 24/15/66
f 24/15/67 5/18/67 27/28/67
f 17/25/68 45/27/68 27/28/68
f 22/30/69 46/33/69 25/31/69
f 22/30/70 4/72/70 19/32/70
f 19/32/71 2/73/71 28/34/71
f 25/31/72 46/33/72 28/34/72
f 9/35/73 30/39/73 47/36/73
f 10/38/74 31/74/74 47/36/74
f 47/36/75 31/74/75 12/40/75
f 47/36/76 32/41/76 11/42/76
f 11/42/77 32/41/77 48/43/77
f 12/40/78 34/75/78 48/43/78
f 48/43/79 34/75/79 16/45/79
f 48/43/80 35/46/80 15/47/80
f 15/47/81 35/46/81 49/48/81
f 16/45/82 37/65/82 49/48/82
f 49/48/83 37/65/83 14/50/83
f 49/48/84 38/51/84 13/52/84
f 13/52/85 38/51/85 50/53/85
f 14/50/86 40/76/86 50/53/86
f 50/53/87 40/76/87 10/55/87
f 50/53/88 30/56/88 9/57/88
f 33/58/89 51/61/89 29/59/89
f 33/58/90 15/47/90 36/49/90
f 36/49/91 13/52/91 39/62/91
f 29/59/92 51/61/92 39/62/92
f 34/64/93 52/67/93 37/65/93
f 34/64/94 12/77/94 31/66/94
f 31/66/95 10/78/95 40/68/95
f 37/65/96 52/67/96 40/68/96
