# Blender 4.2.1 LTS
# www.blender.org
mtllib InMouth.mtl
o 立方体
v -15.912181 -5.201067 9.226071
v -15.912181 -3.283417 9.226071
v -16.100914 -5.201067 -4.489785
v -16.100914 -3.283417 -4.489785
v 15.981266 -5.201067 9.151847
v 15.981266 -3.283417 9.151847
v 16.493626 -5.201067 -4.676268
v 16.493626 -3.283417 -4.676268
v -17.803385 -5.201067 -0.145396
v -17.336819 -5.201067 4.540338
v -17.336819 -3.283417 4.540338
v -17.803385 -3.283417 -0.145396
v 17.816217 -5.201067 4.802547
v 18.198313 -5.201067 0.063140
v 18.198313 -3.283417 0.063140
v 17.816217 -3.283417 4.802547
vn -0.9311 -0.0000 -0.3649
vn -0.0057 -0.0000 -1.0000
vn 0.9214 -0.0000 0.3887
vn 0.0023 -0.0000 1.0000
vn -0.0000 -1.0000 -0.0000
vn -0.0000 1.0000 -0.0000
vn 0.9410 -0.0000 -0.3385
vn 0.9968 -0.0000 0.0804
vn -0.9568 -0.0000 0.2909
vn -0.9951 -0.0000 0.0991
vt 0.943839 0.554260
vt 0.999797 0.416851
vt 0.999797 0.554260
vt 0.831110 0.971263
vt 0.887068 0.000203
vt 0.887068 0.971263
vt 0.999797 0.277698
vt 0.943839 0.416445
vt 0.943839 0.277698
vt 0.943432 0.000203
vt 0.887474 0.897006
vt 0.887474 0.000203
vt 0.688992 0.942761
vt 0.830704 0.031721
vt 0.825659 0.928510
vt 0.273538 0.028705
vt 0.415250 0.939744
vt 0.276901 0.950250
vt 0.000203 0.000203
vt 0.138552 0.960756
vt 0.000203 0.971262
vt 0.415657 0.971262
vt 0.554006 0.010709
vt 0.552324 0.957011
vt 0.999797 0.000203
vt 0.943839 0.138950
vt 0.943839 0.000203
vt 0.999797 0.138951
vt 0.943839 0.829077
vt 0.999797 0.691668
vt 0.999797 0.829077
vt 0.943839 0.691668
vt 0.943839 0.416851
vt 0.831110 0.000203
vt 0.999797 0.416445
vt 0.943433 0.897006
vt 0.692355 0.021215
vt 0.410206 0.042956
vt 0.136871 0.014454
vt 0.415657 0.000203
s 0
usemtl mouth
f 12/1/1 3/2/1 9/3/1
f 4/4/2 7/5/2 3/6/2
f 16/7/3 5/8/3 13/9/3
f 6/10/4 1/11/4 5/12/4
f 10/13/5 5/14/5 1/15/5
f 11/16/6 6/17/6 16/18/6
f 4/19/6 15/20/6 8/21/6
f 15/20/6 11/16/6 16/18/6
f 3/22/5 14/23/5 9/24/5
f 14/23/5 10/13/5 9/24/5
f 8/25/7 14/26/7 7/27/7
f 15/28/8 13/9/8 14/26/8
f 2/29/9 10/30/9 1/31/9
f 11/32/10 9/3/10 10/30/10
f 12/1/1 4/33/1 3/2/1
f 4/4/2 8/34/2 7/5/2
f 16/7/3 6/35/3 5/8/3
f 6/10/4 2/36/4 1/11/4
f 10/13/5 13/37/5 5/14/5
f 11/16/6 2/38/6 6/17/6
f 4/19/6 12/39/6 15/20/6
f 15/20/6 12/39/6 11/16/6
f 3/22/5 7/40/5 14/23/5
f 14/23/5 13/37/5 10/13/5
f 8/25/7 15/28/7 14/26/7
f 15/28/8 16/7/8 13/9/8
f 2/29/9 11/32/9 10/30/9
f 11/32/10 12/1/10 9/3/10
