# Blender 4.2.1 LTS
# www.blender.org
mtllib attract.mtl
o 平面
v -0.312865 -0.336745 0.005979
v 0.334173 -0.331294 0.009816
v -0.321280 0.324771 -0.010605
v 0.350153 0.311440 0.001180
v 0.002542 -0.462768 0.002081
v 0.005945 0.502979 -0.021565
v -0.473051 0.009269 -0.012068
v 0.496845 0.003674 -0.014656
v 0.000000 0.000000 0.000000
v -0.212699 0.425397 0.000000
v -0.217688 -0.432884 0.000538
v -0.212699 0.000000 0.000000
v 0.212699 -0.425397 -0.000000
v 0.212699 0.425397 0.000000
v 0.212699 0.000000 0.000000
v 0.439119 0.229551 0.000338
v 0.000000 0.212699 0.000000
v -0.425397 0.212699 0.000000
v -0.212699 0.212699 0.000000
v 0.212699 0.212699 0.000000
v -0.425397 -0.212699 -0.000000
v 0.428394 -0.206462 -0.007286
v 0.000000 -0.212699 -0.000000
v -0.212699 -0.212699 -0.000000
v 0.212699 -0.212699 -0.000000
vn -0.0086 -0.0000 1.0000
vn -0.0000 -0.0000 1.0000
vn 0.0338 -0.0000 0.9994
vn -0.0447 0.0447 0.9980
vn -0.0000 0.0942 0.9956
vn -0.0754 0.0754 0.9943
vn -0.0480 -0.0480 0.9977
vn -0.0015 -0.0000 1.0000
vn 0.0084 0.0084 0.9999
vn -0.0000 0.0481 0.9988
vn -0.0805 -0.0000 0.9968
vn -0.0000 0.0024 1.0000
vn -0.0007 -0.0110 0.9999
vn 0.0724 0.0724 0.9947
vn 0.0513 0.0183 0.9985
vn -0.0972 -0.0000 0.9953
vn 0.0521 -0.0529 0.9972
vn 0.0582 0.0011 0.9983
vn 0.0303 0.1132 0.9931
vn -0.0059 0.0083 0.9999
vt 0.503710 0.822238
vt 0.540473 0.999899
vt 0.349463 0.990121
vt 0.335599 0.667705
vt 0.013121 0.680686
vt 0.167604 0.512877
vt 0.645004 0.331892
vt 0.322475 0.345022
vt 0.477227 0.177237
vt 0.978549 0.648436
vt 0.658288 0.654360
vt 0.813074 0.486449
vt 0.309590 0.022661
vt 0.110292 0.162720
vt 0.000100 0.522269
vt 0.000100 0.358033
vt 0.490367 0.499752
vt 0.128814 0.901831
vt 0.670022 0.999900
vt 0.967281 0.318328
vt 0.828611 0.136406
vt 0.488414 0.006538
vt 0.995405 0.480802
vt 0.633333 0.000100
vt 0.880114 0.863918
s 0
usemtl マテリアル.001
f 20/1/1 4/2/1 14/3/1
f 17/4/2 10/5/2 19/6/2
f 23/7/2 12/8/2 24/9/2
f 22/10/3 15/11/3 25/12/3
f 21/13/4 12/8/4 7/14/4
f 19/6/5 3/15/5 18/16/5
f 25/12/2 9/17/2 23/7/2
f 17/4/6 14/3/6 6/18/6
f 15/11/2 17/4/2 9/17/2
f 12/8/7 18/16/7 7/14/7
f 9/17/2 19/6/2 12/8/2
f 15/11/8 16/19/8 20/1/8
f 13/20/9 23/7/9 5/21/9
f 1/22/10 24/9/10 21/13/10
f 2/23/11 25/12/11 13/20/11
f 11/24/12 23/7/12 24/9/12
f 20/1/13 16/19/13 4/2/13
f 17/4/14 6/18/14 10/5/14
f 23/7/2 9/17/2 12/8/2
f 22/10/15 8/25/15 15/11/15
f 21/13/2 24/9/2 12/8/2
f 19/6/16 10/5/16 3/15/16
f 25/12/2 15/11/2 9/17/2
f 17/4/2 20/1/2 14/3/2
f 15/11/2 20/1/2 17/4/2
f 12/8/2 19/6/2 18/16/2
f 9/17/2 17/4/2 19/6/2
f 15/11/17 8/25/17 16/19/17
f 13/20/2 25/12/2 23/7/2
f 1/22/18 11/24/18 24/9/18
f 2/23/19 22/10/19 25/12/19
f 11/24/20 5/21/20 23/7/20
