# Blender 4.2.1 LTS
# www.blender.org
mtllib kometubu.mtl
o 立方体.005
v -0.425744 -0.890585 0.559144
v -0.425744 0.890585 0.559144
v -0.425744 -0.890585 -0.559144
v -0.425744 0.890585 -0.559144
v 0.425744 -0.890585 0.559144
v 0.425744 0.890585 0.559144
v 0.425744 -0.890585 -0.559144
v 0.425744 0.890585 -0.559144
v -0.519040 -1.085744 -0.000000
v -0.519040 0.000000 0.681673
v -0.519040 1.085744 -0.000000
v -0.519040 0.000000 -0.681673
v -0.000000 -1.085744 -0.681673
v 0.000000 1.085744 -0.681673
v 0.519040 0.000000 -0.681673
v 0.519040 -1.085744 -0.000000
v 0.519040 1.085744 -0.000000
v 0.519040 0.000000 0.681673
v 0.000000 -1.085744 0.681673
v -0.000000 1.085744 0.681673
v -0.714830 0.000000 -0.000000
v -0.000000 0.000000 -0.938810
v 0.714830 0.000000 -0.000000
v 0.000000 0.000000 0.938810
v -0.000000 -1.495302 -0.000000
v -0.000000 1.495302 -0.000000
vn -0.9599 -0.1731 0.2206
vn -0.9520 0.1374 0.2734
vn -0.9520 0.1374 -0.2734
vn -0.9599 -0.1731 -0.2206
vn -0.3599 -0.2150 -0.9079
vn -0.4377 0.1674 -0.8834
vn 0.4377 0.1674 -0.8834
vn 0.3599 -0.2150 -0.9079
vn 0.9599 -0.1731 -0.2206
vn 0.9520 0.1374 -0.2734
vn 0.9520 0.1374 0.2734
vn 0.9599 -0.1731 0.2206
vn 0.3599 -0.2150 0.9079
vn 0.4377 0.1674 0.8834
vn -0.4377 0.1674 0.8834
vn -0.3599 -0.2150 0.9079
vn -0.4724 -0.8047 -0.3597
vn 0.5603 -0.7100 -0.4266
vn 0.5603 -0.7100 0.4266
vn -0.4724 -0.8047 0.3597
vn 0.4724 0.8047 -0.3597
vn -0.5603 0.7100 -0.4266
vn -0.5603 0.7100 0.4266
vn 0.4724 0.8047 0.3597
vn -0.9520 -0.1374 0.2734
vn -0.9599 0.1731 0.2206
vn -0.9599 0.1731 -0.2206
vn -0.9520 -0.1374 -0.2734
vn -0.4377 -0.1674 -0.8834
vn -0.3599 0.2150 -0.9079
vn 0.3599 0.2150 -0.9079
vn 0.4377 -0.1674 -0.8834
vn 0.9520 -0.1374 -0.2734
vn 0.9599 0.1731 -0.2206
vn 0.9599 0.1731 0.2206
vn 0.9520 -0.1374 0.2734
vn 0.4377 -0.1674 0.8834
vn 0.3599 0.2150 0.9079
vn -0.3599 0.2150 0.9079
vn -0.4377 -0.1674 0.8834
vn -0.5603 -0.7100 -0.4266
vn 0.4724 -0.8047 -0.3597
vn 0.4724 -0.8047 0.3597
vn -0.5603 -0.7100 0.4266
vn 0.5603 0.7100 -0.4266
vn -0.4724 0.8047 -0.3597
vn -0.4724 0.8047 0.3597
vn 0.5603 0.7100 0.4266
vt 0.375000 0.000000
vt 0.500000 0.125000
vt 0.375000 0.125000
vt 0.625000 0.000000
vt 0.500000 0.000000
vt 0.625000 0.250000
vt 0.500000 0.250000
vt 0.375000 0.250000
vt 0.500000 0.375000
vt 0.375000 0.375000
vt 0.625000 0.500000
vt 0.500000 0.500000
vt 0.375000 0.500000
vt 0.500000 0.625000
vt 0.375000 0.625000
vt 0.625000 0.750000
vt 0.500000 0.750000
vt 0.375000 0.750000
vt 0.500000 0.875000
vt 0.375000 0.875000
vt 0.625000 1.000000
vt 0.500000 1.000000
vt 0.375000 1.000000
vt 0.250000 0.500000
vt 0.125000 0.625000
vt 0.125000 0.500000
vt 0.250000 0.625000
vt 0.250000 0.750000
vt 0.125000 0.750000
vt 0.750000 0.500000
vt 0.625000 0.625000
vt 0.875000 0.625000
vt 0.750000 0.625000
vt 0.750000 0.750000
vt 0.625000 0.125000
vt 0.625000 0.375000
vt 0.625000 0.875000
vt 0.875000 0.500000
vt 0.875000 0.750000
s 0
usemtl マテリアル.004
f 1/1/1 21/2/1 9/3/1
f 2/4/2 21/2/2 10/5/2
f 21/2/3 4/6/3 12/7/3
f 21/2/4 3/8/4 9/3/4
f 3/8/5 22/9/5 13/10/5
f 4/6/6 22/9/6 12/7/6
f 22/9/7 8/11/7 15/12/7
f 22/9/8 7/13/8 13/10/8
f 7/13/9 23/14/9 16/15/9
f 8/11/10 23/14/10 15/12/10
f 23/14/11 6/16/11 18/17/11
f 23/14/12 5/18/12 16/15/12
f 5/18/13 24/19/13 19/20/13
f 6/16/14 24/19/14 18/17/14
f 24/19/15 2/21/15 10/22/15
f 24/19/16 1/23/16 19/20/16
f 13/24/17 9/25/17 3/26/17
f 13/24/18 16/15/18 25/27/18
f 16/15/19 19/28/19 25/27/19
f 9/25/20 19/28/20 1/29/20
f 14/30/21 17/31/21 8/11/21
f 14/30/22 11/32/22 26/33/22
f 11/32/23 20/34/23 26/33/23
f 17/31/24 20/34/24 6/16/24
f 1/1/25 10/5/25 21/2/25
f 2/4/26 11/35/26 21/2/26
f 21/2/27 11/35/27 4/6/27
f 21/2/28 12/7/28 3/8/28
f 3/8/29 12/7/29 22/9/29
f 4/6/30 14/36/30 22/9/30
f 22/9/31 14/36/31 8/11/31
f 22/9/32 15/12/32 7/13/32
f 7/13/33 15/12/33 23/14/33
f 8/11/34 17/31/34 23/14/34
f 23/14/35 17/31/35 6/16/35
f 23/14/36 18/17/36 5/18/36
f 5/18/37 18/17/37 24/19/37
f 6/16/38 20/37/38 24/19/38
f 24/19/39 20/37/39 2/21/39
f 24/19/40 10/22/40 1/23/40
f 13/24/41 25/27/41 9/25/41
f 13/24/42 7/13/42 16/15/42
f 16/15/43 5/18/43 19/28/43
f 9/25/44 25/27/44 19/28/44
f 14/30/45 26/33/45 17/31/45
f 14/30/46 4/38/46 11/32/46
f 11/32/47 2/39/47 20/34/47
f 17/31/48 26/33/48 20/34/48
