# Blender 4.2.1 LTS
# www.blender.org
mtllib player.mtl
o Cube
v 0.284765 1.451565 -0.284765
v 0.284765 0.882035 -0.284765
v 0.284765 1.451565 0.284765
v 0.284765 0.882035 0.284765
v -0.284765 1.451565 -0.284765
v -0.284765 0.882035 -0.284765
v -0.284765 1.451565 0.284765
v -0.284765 0.882035 0.284765
v -0.191360 -0.008055 0.195617
v -0.191360 0.996852 0.195617
v -0.191360 -0.008055 -0.195617
v -0.191360 0.996852 -0.195617
v 0.191360 -0.008055 0.195617
v 0.191360 0.996852 0.195617
v 0.191360 -0.008055 -0.195617
v 0.191360 0.996852 -0.195617
vn -0.0000 1.0000 -0.0000
vn -0.0000 -0.0000 1.0000
vn -1.0000 -0.0000 -0.0000
vn -0.0000 -1.0000 -0.0000
vn 1.0000 -0.0000 -0.0000
vn -0.0000 -0.0000 -1.0000
vt 0.999885 0.333295
vt 0.833295 0.499885
vt 0.833295 0.333295
vt 0.666705 0.666474
vt 0.666705 0.499885
vt 0.833295 0.000115
vt 0.666705 0.166705
vt 0.666705 0.000115
vt 0.666705 0.333295
vt 0.500115 0.499885
vt 0.500115 0.333295
vt 0.833295 0.166705
vt 0.000000 0.000000
vt 0.999885 0.499885
vt 0.833295 0.666474
s 0
usemtl material
f 5/1/1 3/2/1 1/3/1
f 3/2/2 8/4/2 4/5/2
f 7/6/3 6/7/3 8/8/3
f 2/9/4 8/10/4 6/11/4
f 1/3/5 4/5/5 2/9/5
f 5/12/6 2/9/6 6/7/6
f 10/13/3 11/13/3 9/13/3
f 12/13/6 15/13/6 11/13/6
f 16/13/5 13/13/5 15/13/5
f 14/13/2 9/13/2 13/13/2
f 15/13/4 9/13/4 11/13/4
f 12/13/1 14/13/1 16/13/1
f 5/1/1 7/14/1 3/2/1
f 3/2/2 7/15/2 8/4/2
f 7/6/3 5/12/3 6/7/3
f 2/9/4 4/5/4 8/10/4
f 1/3/5 3/2/5 4/5/5
f 5/12/6 1/3/6 2/9/6
f 10/13/3 12/13/3 11/13/3
f 12/13/6 16/13/6 15/13/6
f 16/13/5 14/13/5 13/13/5
f 14/13/2 10/13/2 9/13/2
f 15/13/4 13/13/4 9/13/4
f 12/13/1 10/13/1 14/13/1
