# Blender 4.2.1 LTS
# www.blender.org
mtllib triangleRiceBall.mtl
o 立方体.002
v 0.553378 -0.465942 0.645415
v 0.655952 -0.466965 0.387268
v 0.591887 -0.315851 0.643940
v 0.332628 -0.469877 0.658609
v 0.377923 -0.524521 0.421441
v 0.406932 -0.521820 0.000000
v 0.000000 -0.535069 0.000000
v 0.000000 -0.529416 0.447334
v -0.377923 -0.524521 0.421441
v -0.332628 -0.469877 0.658609
v 0.000000 -0.472156 0.711064
v -0.324479 -0.305688 0.809237
v 0.324479 -0.305688 0.809237
v 0.000000 -0.324352 0.829004
v 0.000000 -0.083586 0.787370
v 0.312614 -0.079788 0.775735
v 0.000000 0.221746 0.684487
v -0.312614 -0.079788 0.775736
v -0.268875 0.263851 0.662110
v -0.537722 0.010149 0.599243
v -0.591887 -0.315851 0.643940
v -0.553378 -0.465942 0.645415
v -0.655952 -0.466965 0.387269
v -0.765319 -0.320880 0.401453
v -0.733657 0.026556 0.412949
v -0.602828 0.373993 0.384043
v -0.787780 0.026556 -0.000000
v -0.483376 0.317158 0.542299
v -0.224116 0.549829 0.477319
v -0.385008 0.525435 0.424900
v -0.419312 0.656173 0.351821
v -0.639339 0.392657 -0.000000
v -0.215432 0.763103 0.253912
v -0.434820 0.696432 -0.000000
v -0.218296 0.855734 -0.000000
v 0.000000 0.887468 -0.000000
v 0.215432 0.763103 0.253913
v 0.000000 0.760739 0.266585
v 0.218296 0.855734 -0.000000
v 0.434820 0.696432 -0.000000
v 0.639339 0.392657 -0.000000
v 0.419312 0.656173 0.351821
v 0.602828 0.373993 0.384043
v 0.224116 0.549829 0.477319
v 0.385008 0.525435 0.424900
v 0.483376 0.317158 0.542299
v 0.733657 0.026556 0.412949
v 0.550910 0.010149 0.620343
v 0.268876 0.263851 0.662110
v 0.000000 0.544709 0.484504
v 0.787780 0.026556 -0.000000
v 0.765319 -0.320880 0.401453
v 0.827975 -0.339544 -0.000000
v 0.709200 -0.469244 0.000000
v -0.827975 -0.339544 -0.000000
v -0.709200 -0.469244 0.000000
v -0.406932 -0.521820 0.000000
v 0.553378 -0.465943 -0.645415
v 0.385008 0.525434 -0.424900
v -0.553378 -0.465943 -0.645415
v -0.385008 0.525434 -0.424900
v 0.655952 -0.466966 -0.387269
v 0.709200 -0.469244 0.000000
v 0.434820 0.696432 -0.000000
v 0.419312 0.656173 -0.351821
v 0.483376 0.317157 -0.542299
v 0.550910 0.010148 -0.620343
v 0.591887 -0.315852 -0.643940
v -0.332628 -0.469878 -0.658609
v 0.000000 -0.472157 -0.711064
v 0.332628 -0.469878 -0.658609
v 0.224116 0.549828 -0.477319
v 0.000000 0.544708 -0.484504
v -0.224116 0.549828 -0.477319
v -0.483376 0.317157 -0.542299
v -0.537722 0.010148 -0.599243
v -0.591887 -0.315852 -0.643940
v -0.709200 -0.469244 0.000000
v -0.655952 -0.466966 -0.387268
v -0.419312 0.656173 -0.351821
v -0.434820 0.696432 -0.000000
v 0.827975 -0.339544 -0.000000
v 0.787780 0.026556 -0.000000
v 0.639339 0.392657 -0.000000
v 0.765319 -0.320881 -0.401453
v 0.733657 0.026555 -0.412949
v 0.602828 0.373993 -0.384043
v 0.324479 -0.305689 -0.809237
v 0.312614 -0.079789 -0.775735
v 0.268875 0.263850 -0.662110
v 0.000000 -0.324353 -0.829004
v 0.000000 -0.083587 -0.787370
v 0.000000 0.221745 -0.684487
v -0.324479 -0.305689 -0.809237
v -0.312614 -0.079789 -0.775736
v -0.268876 0.263850 -0.662110
v -0.765319 -0.320881 -0.401453
v -0.733657 0.026555 -0.412949
v -0.602828 0.373993 -0.384043
v -0.827975 -0.339544 -0.000000
v -0.787780 0.026556 -0.000000
v -0.639339 0.392657 -0.000000
v 0.377923 -0.524522 -0.421441
v 0.000000 -0.529417 -0.447334
v -0.377923 -0.524522 -0.421441
v 0.406932 -0.521820 0.000000
v 0.000000 -0.535069 0.000000
v -0.406932 -0.521820 0.000000
v -0.215432 0.763103 -0.253912
v 0.000000 0.760739 -0.266585
v 0.215432 0.763103 -0.253913
v -0.218296 0.855734 -0.000000
v 0.000000 0.887468 -0.000000
v 0.218296 0.855734 -0.000000
vn 0.2123 -0.9732 0.0882
vn 0.9044 -0.2285 0.3603
vn 0.0598 -0.0055 0.9982
vn 0.0311 -0.9727 0.2300
vn 0.2036 -0.9790 0.0077
vn 0.0325 -0.9995 -0.0042
vn 0.0138 -0.9998 0.0126
vn 0.0283 -0.9729 0.2296
vn -0.0283 -0.9729 0.2296
vn -0.0138 -0.9998 0.0126
vn 0.0401 -0.9764 0.2120
vn -0.0401 -0.9764 0.2120
vn -0.1204 -0.6679 0.7345
vn -0.0832 -0.6216 0.7789
vn 0.0832 -0.6216 0.7789
vn 0.1204 -0.6679 0.7345
vn 0.0502 0.1702 0.9841
vn -0.0502 0.1702 0.9841
vn 0.0350 0.1484 0.9883
vn 0.0314 0.3192 0.9472
vn -0.0314 0.3192 0.9472
vn -0.0350 0.1484 0.9883
vn -0.0292 0.3172 0.9479
vn -0.4979 0.3287 0.8025
vn -0.5528 0.2027 0.8083
vn -0.5239 0.1518 0.8382
vn -0.4003 -0.6086 0.6851
vn -0.0598 -0.0055 0.9982
vn -0.9044 -0.2285 0.3603
vn -0.6730 -0.5517 0.4928
vn -0.8127 0.0549 0.5801
vn -0.6646 0.2088 0.7174
vn -0.6990 0.3166 0.6413
vn -0.9256 0.3586 0.1213
vn -0.9879 0.0857 0.1295
vn -0.6565 0.2483 0.7123
vn -0.3308 0.5771 0.7467
vn -0.2986 0.5505 0.7796
vn -0.4280 0.2375 0.8720
vn -0.5263 0.5924 0.6100
vn -0.4085 0.3614 0.8382
vn -0.3382 0.3900 0.8565
vn -0.8281 0.5506 0.1055
vn -0.8254 0.5557 0.1000
vn -0.0487 0.7234 0.6887
vn -0.4147 0.9018 0.1215
vn -0.5675 0.7714 0.2878
vn -0.1352 0.9303 0.3409
vn -0.0153 0.9030 0.4293
vn 0.1352 0.9303 0.3409
vn 0.0153 0.9030 0.4293
vn 0.5675 0.7714 0.2878
vn 0.4147 0.9018 0.1215
vn 0.8254 0.5557 0.1000
vn 0.8281 0.5506 0.1055
vn 0.4085 0.3614 0.8382
vn 0.3382 0.3900 0.8565
vn 0.0487 0.7234 0.6887
vn 0.5263 0.5924 0.6100
vn 0.3308 0.5771 0.7467
vn 0.6990 0.3166 0.6413
vn 0.6991 0.3167 0.6411
vn 0.4045 0.3079 0.8612
vn 0.2986 0.5505 0.7796
vn 0.4239 0.3325 0.8425
vn 0.0292 0.3172 0.9479
vn 0.0145 0.5443 0.8388
vn -0.0117 0.5264 0.8501
vn 0.0117 0.5264 0.8501
vn -0.0145 0.5443 0.8388
vn 0.0063 0.7102 0.7040
vn -0.0063 0.7102 0.7040
vn 0.7373 0.1405 0.6608
vn 0.5082 0.1256 0.8520
vn 0.9879 0.0857 0.1295
vn 0.9256 0.3586 0.1213
vn 0.8127 0.0549 0.5801
vn 0.9830 0.1079 0.1484
vn 0.7297 -0.6682 0.1450
vn 0.6730 -0.5517 0.4928
vn 0.7902 -0.6025 0.1122
vn 0.1713 -0.9848 0.0293
vn 0.9215 0.3736 0.1058
vn 0.0326 0.7236 0.6895
vn -0.0326 0.7236 0.6895
vn -0.9215 0.3736 0.1058
vn -0.9830 0.1079 0.1484
vn -0.7297 -0.6682 0.1450
vn -0.7902 -0.6025 0.1122
vn -0.1713 -0.9848 0.0293
vn -0.2036 -0.9790 0.0077
vn -0.0325 -0.9995 -0.0042
vn -0.2123 -0.9732 0.0882
vn -0.0311 -0.9727 0.2300
vn 0.5239 0.1518 0.8382
vn 0.4003 -0.6086 0.6851
vn 0.9830 0.1079 -0.1484
vn 0.9256 0.3586 -0.1213
vn 0.8281 0.5506 -0.1055
vn 0.5263 0.5924 -0.6100
vn 0.6991 0.3167 -0.6411
vn 0.8127 0.0549 -0.5801
vn 0.9044 -0.2285 -0.3603
vn 0.7902 -0.6025 -0.1122
vn 0.0502 0.1702 -0.9841
vn 0.0314 0.3192 -0.9472
vn -0.0502 0.1702 -0.9841
vn -0.0314 0.3192 -0.9472
vn 0.0598 -0.0055 -0.9982
vn 0.5239 0.1518 -0.8382
vn 0.4239 0.3325 -0.8425
vn 0.2986 0.5505 -0.7796
vn -0.0117 0.5264 -0.8501
vn 0.0117 0.5264 -0.8501
vn -0.2986 0.5505 -0.7796
vn -0.4979 0.3287 -0.8025
vn -0.5239 0.1518 -0.8382
vn -0.0598 -0.0055 -0.9982
vn -0.1204 -0.6679 -0.7345
vn 0.1204 -0.6679 -0.7345
vn -0.9830 0.1079 -0.1484
vn -0.9256 0.3586 -0.1213
vn -0.9044 -0.2285 -0.3603
vn -0.8127 0.0549 -0.5801
vn -0.6565 0.2483 -0.7123
vn -0.5263 0.5924 -0.6100
vn -0.8281 0.5506 -0.1055
vn -0.7902 -0.6025 -0.1122
vn 0.0325 -0.9995 0.0042
vn -0.0138 -0.9998 -0.0126
vn 0.2123 -0.9732 -0.0882
vn 0.0283 -0.9729 -0.2296
vn -0.0401 -0.9764 -0.2120
vn -0.0311 -0.9727 -0.2300
vn -0.2036 -0.9790 -0.0077
vn 0.1713 -0.9848 -0.0293
vn -0.1352 0.9303 -0.3409
vn 0.0153 0.9030 -0.4293
vn -0.3382 0.3900 -0.8565
vn -0.0326 0.7236 -0.6895
vn 0.0063 0.7102 -0.7040
vn 0.0487 0.7234 -0.6887
vn 0.5675 0.7714 -0.2878
vn -0.4147 0.9018 -0.1215
vn 0.9879 0.0857 -0.1295
vn 0.9215 0.3736 -0.1058
vn 0.8254 0.5557 -0.1000
vn 0.4085 0.3614 -0.8382
vn 0.6990 0.3166 -0.6413
vn 0.7373 0.1405 -0.6608
vn 0.6730 -0.5517 -0.4928
vn 0.7297 -0.6682 -0.1450
vn 0.0350 0.1484 -0.9883
vn 0.0292 0.3172 -0.9479
vn -0.0350 0.1484 -0.9883
vn -0.0292 0.3172 -0.9479
vn 0.4003 -0.6086 -0.6851
vn 0.5082 0.1256 -0.8520
vn 0.4045 0.3079 -0.8612
vn 0.3308 0.5771 -0.7467
vn 0.0145 0.5443 -0.8388
vn -0.0145 0.5443 -0.8388
vn -0.3308 0.5771 -0.7467
vn -0.4280 0.2375 -0.8720
vn -0.5528 0.2027 -0.8083
vn -0.4003 -0.6086 -0.6851
vn -0.0832 -0.6216 -0.7789
vn 0.0832 -0.6216 -0.7789
vn -0.9879 0.0857 -0.1295
vn -0.9215 0.3736 -0.1058
vn -0.6730 -0.5517 -0.4928
vn -0.6646 0.2088 -0.7174
vn -0.6990 0.3166 -0.6413
vn -0.4085 0.3614 -0.8382
vn -0.8254 0.5557 -0.1000
vn -0.7297 -0.6682 -0.1450
vn 0.0138 -0.9998 -0.0126
vn -0.0325 -0.9995 0.0042
vn 0.0311 -0.9727 -0.2300
vn 0.0401 -0.9764 -0.2120
vn -0.0283 -0.9729 -0.2296
vn -0.2123 -0.9732 -0.0882
vn -0.1713 -0.9848 -0.0293
vn 0.2036 -0.9790 -0.0077
vn -0.0153 0.9030 -0.4293
vn 0.1352 0.9303 -0.3409
vn -0.0487 0.7234 -0.6887
vn -0.0063 0.7102 -0.7040
vn 0.0326 0.7236 -0.6895
vn 0.3382 0.3900 -0.8565
vn 0.4147 0.9018 -0.1215
vn -0.5675 0.7714 -0.2878
vt 0.269211 0.413913
vt 0.312939 0.445258
vt 0.250861 0.462753
vt 0.245128 0.403436
vt 0.300617 0.396614
vt 0.337276 0.568754
vt 0.476009 0.500315
vt 0.380383 0.395414
vt 0.388948 0.316112
vt 0.436239 0.332869
vt 0.343471 0.354913
vt 0.358664 0.292880
vt 0.321170 0.330437
vt 0.280284 0.364288
vt 0.292882 0.299383
vt 0.253298 0.337003
vt 0.252722 0.255306
vt 0.334017 0.263443
vt 0.287414 0.214770
vt 0.360617 0.215649
vt 0.400850 0.261548
vt 0.409058 0.286461
vt 0.459373 0.272661
vt 0.451549 0.232895
vt 0.400976 0.175541
vt 0.314113 0.171486
vt 0.330072 0.127790
vt 0.490008 0.083705
vt 0.236912 0.162089
vt 0.267995 0.138504
vt 0.253903 0.106226
vt 0.365037 0.017614
vt 0.237684 0.006001
vt 0.190759 0.100619
vt 0.147835 0.030399
vt 0.084886 0.071525
vt 0.146802 0.139324
vt 0.104275 0.179600
vt 0.038232 0.130494
vt 0.005804 0.217753
vt 0.104135 0.243006
vt 0.005804 0.345582
vt 0.118703 0.320844
vt 0.135013 0.259973
vt 0.161324 0.231126
vt 0.163751 0.308954
vt 0.159605 0.395906
vt 0.204419 0.359637
vt 0.209228 0.286097
vt 0.198429 0.195849
vt 0.060094 0.475993
vt 0.212021 0.451336
vt 0.167257 0.555739
vt 0.224676 0.571885
vt 0.559705 0.197854
vt 0.570527 0.256574
vt 0.557018 0.368489
vt 0.483914 0.898454
vt 0.591077 0.978201
vt 0.635840 0.873798
vt 0.583425 0.818367
vt 0.542523 0.743306
vt 0.429624 0.768044
vt 0.527955 0.665468
vt 0.587571 0.731416
vt 0.558833 0.682434
vt 0.628239 0.782098
vt 0.668948 0.825898
vt 0.674681 0.885214
vt 0.693031 0.836375
vt 0.648496 0.994347
vt 0.704104 0.786750
vt 0.744990 0.752899
vt 0.716702 0.721844
vt 0.677118 0.759465
vt 0.676542 0.677767
vt 0.782484 0.715342
vt 0.757837 0.685905
vt 0.724437 0.819075
vt 0.633048 0.708559
vt 0.585145 0.653588
vt 0.622249 0.618310
vt 0.711234 0.637231
vt 0.660732 0.584551
vt 0.737933 0.593947
vt 0.784437 0.638110
vt 0.824670 0.684009
vt 0.812768 0.738573
vt 0.832878 0.708923
vt 0.767291 0.777375
vt 0.875369 0.655357
vt 0.983525 0.620316
vt 0.913828 0.506167
vt 0.753891 0.550252
vt 0.824796 0.598003
vt 0.883192 0.695123
vt 0.691815 0.560965
vt 0.677723 0.528687
vt 0.788857 0.440076
vt 0.994347 0.679036
vt 0.736759 0.867720
vt 0.761096 0.991216
vt 0.899829 0.922777
vt 0.860059 0.755331
vt 0.804203 0.817875
vt 0.980838 0.790950
vt 0.614579 0.523081
vt 0.571655 0.452860
vt 0.508706 0.493987
vt 0.528095 0.602061
vt 0.570622 0.561786
vt 0.462052 0.552956
vt 0.429624 0.640215
vt 0.661504 0.428462
s 0
usemtl マテリアル.002
f 1/1/1 5/2/1 2/3/1
f 2/3/2 3/4/2 1/1/2
f 3/4/3 4/5/3 1/1/3
f 1/1/4 4/5/4 5/2/4
f 2/3/5 5/2/5 6/6/5
f 5/2/6 7/7/6 6/6/6
f 5/2/7 8/8/7 7/7/7
f 4/5/8 8/8/8 5/2/8
f 10/9/9 9/10/9 8/8/9
f 9/10/10 7/7/10 8/8/10
f 4/5/11 11/11/11 8/8/11
f 10/9/12 8/8/12 11/11/12
f 11/11/13 12/12/13 10/9/13
f 11/11/14 14/13/14 12/12/14
f 13/14/15 14/13/15 11/11/15
f 13/14/16 11/11/16 4/5/16
f 13/14/17 15/15/17 14/13/17
f 15/15/18 12/12/18 14/13/18
f 13/14/19 16/16/19 15/15/19
f 16/16/20 17/17/20 15/15/20
f 17/17/21 18/18/21 15/15/21
f 15/15/22 18/18/22 12/12/22
f 17/17/23 19/19/23 18/18/23
f 19/19/24 20/20/24 18/18/24
f 18/18/25 20/20/25 21/21/25
f 18/18/26 21/21/26 12/12/26
f 10/9/27 12/12/27 21/21/27
f 10/9/28 21/21/28 22/22/28
f 21/21/29 23/23/29 22/22/29
f 21/21/30 24/24/30 23/23/30
f 21/21/31 25/25/31 24/24/31
f 21/21/32 20/20/32 25/25/32
f 28/26/33 26/27/33 25/25/33
f 26/27/34 27/28/34 25/25/34
f 24/24/35 25/25/35 27/28/35
f 28/26/36 25/25/36 20/20/36
f 29/29/37 30/30/37 28/26/37
f 29/29/38 28/26/38 19/19/38
f 19/19/39 28/26/39 20/20/39
f 30/30/40 26/27/40 28/26/40
f 30/30/41 31/31/41 26/27/41
f 29/29/42 31/31/42 30/30/42
f 31/31/43 32/32/43 26/27/43
f 31/31/44 34/33/44 32/32/44
f 29/29/45 33/34/45 31/31/45
f 33/34/46 34/33/46 31/31/46
f 33/34/47 35/35/47 34/33/47
f 33/34/48 36/36/48 35/35/48
f 33/34/49 38/37/49 36/36/49
f 37/38/50 39/39/50 36/36/50
f 37/38/51 36/36/51 38/37/51
f 37/38/52 40/40/52 39/39/52
f 37/38/53 42/41/53 40/40/53
f 41/42/54 40/40/54 42/41/54
f 41/42/55 42/41/55 43/43/55
f 43/43/56 42/41/56 45/44/56
f 44/45/57 45/44/57 42/41/57
f 44/45/58 42/41/58 37/38/58
f 43/43/59 45/44/59 46/46/59
f 46/46/60 45/44/60 44/45/60
f 47/47/61 43/43/61 46/46/61
f 47/47/62 46/46/62 48/48/62
f 48/48/63 46/46/63 49/49/63
f 46/46/64 44/45/64 49/49/64
f 48/48/65 49/49/65 16/16/65
f 16/16/66 49/49/66 17/17/66
f 49/49/67 44/45/67 50/50/67
f 49/49/68 50/50/68 17/17/68
f 50/50/69 19/19/69 17/17/69
f 50/50/70 29/29/70 19/19/70
f 44/45/71 38/37/71 50/50/71
f 29/29/72 50/50/72 38/37/72
f 47/47/73 48/48/73 3/4/73
f 3/4/74 48/48/74 16/16/74
f 51/51/75 47/47/75 52/52/75
f 51/51/76 43/43/76 47/47/76
f 47/47/77 3/4/77 52/52/77
f 51/51/78 52/52/78 53/53/78
f 54/54/79 53/53/79 52/52/79
f 2/3/80 52/52/80 3/4/80
f 54/54/81 52/52/81 2/3/81
f 2/3/82 6/6/82 54/54/82
f 51/51/83 41/42/83 43/43/83
f 44/45/84 37/38/84 38/37/84
f 29/29/85 38/37/85 33/34/85
f 26/27/86 32/32/86 27/28/86
f 24/24/87 27/28/87 55/55/87
f 24/24/88 55/55/88 56/56/88
f 24/24/89 56/56/89 23/23/89
f 23/23/90 56/56/90 57/57/90
f 23/23/91 57/57/91 9/10/91
f 9/10/92 57/57/92 7/7/92
f 22/22/93 23/23/93 9/10/93
f 22/22/94 9/10/94 10/9/94
f 3/4/95 16/16/95 13/14/95
f 3/4/96 13/14/96 4/5/96
f 83/58/97 82/59/97 85/60/97
f 83/58/98 86/61/98 87/62/98
f 84/63/99 87/62/99 65/64/99
f 87/62/100 66/65/100 59/66/100
f 86/61/101 67/67/101 66/65/101
f 86/61/102 85/60/102 68/68/102
f 62/69/103 58/70/103 68/68/103
f 63/71/104 62/69/104 85/60/104
f 88/72/105 91/73/105 92/74/105
f 89/75/106 92/74/106 93/76/106
f 92/74/107 91/73/107 94/77/107
f 93/76/108 92/74/108 95/78/108
f 68/68/109 58/70/109 71/79/109
f 68/68/110 88/72/110 89/75/110
f 67/67/111 89/75/111 90/80/111
f 66/65/112 90/80/112 72/81/112
f 90/80/113 93/76/113 73/82/113
f 73/82/114 93/76/114 96/83/114
f 74/84/115 96/83/115 75/85/115
f 96/83/116 95/78/116 76/86/116
f 95/78/117 94/77/117 77/87/117
f 69/88/118 60/89/118 77/87/118
f 70/90/119 69/88/119 94/77/119
f 88/72/120 71/79/120 70/90/120
f 97/91/121 100/92/121 101/93/121
f 99/94/122 98/95/122 101/93/122
f 77/87/123 60/89/123 79/96/123
f 77/87/124 97/91/124 98/95/124
f 75/85/125 76/86/125 98/95/125
f 61/97/126 75/85/126 99/94/126
f 80/98/127 99/94/127 102/99/127
f 97/91/128 79/96/128 78/100/128
f 103/101/129 106/102/129 107/103/129
f 105/104/130 104/105/130 107/103/130
f 58/70/131 62/69/131 103/101/131
f 71/79/132 103/101/132 104/105/132
f 69/88/133 70/90/133 104/105/133
f 60/89/134 69/88/134 105/104/134
f 79/96/135 105/104/135 108/106/135
f 62/69/136 63/71/136 106/102/136
f 109/107/137 112/108/137 113/109/137
f 111/110/138 110/111/138 113/109/138
f 74/84/139 61/97/139 80/98/139
f 74/84/140 109/107/140 110/111/140
f 72/81/141 73/82/141 110/111/141
f 72/81/142 111/110/142 65/64/142
f 111/110/143 114/112/143 64/113/143
f 109/107/144 80/98/144 81/114/144
f 83/58/145 85/60/145 86/61/145
f 83/58/146 87/62/146 84/63/146
f 84/63/147 65/64/147 64/113/147
f 87/62/148 59/66/148 65/64/148
f 86/61/149 66/65/149 87/62/149
f 86/61/150 68/68/150 67/67/150
f 62/69/151 68/68/151 85/60/151
f 63/71/152 85/60/152 82/59/152
f 88/72/153 92/74/153 89/75/153
f 89/75/154 93/76/154 90/80/154
f 92/74/155 94/77/155 95/78/155
f 93/76/156 95/78/156 96/83/156
f 68/68/157 71/79/157 88/72/157
f 68/68/158 89/75/158 67/67/158
f 67/67/159 90/80/159 66/65/159
f 66/65/160 72/81/160 59/66/160
f 90/80/161 73/82/161 72/81/161
f 73/82/162 96/83/162 74/84/162
f 74/84/163 75/85/163 61/97/163
f 96/83/164 76/86/164 75/85/164
f 95/78/165 77/87/165 76/86/165
f 69/88/166 77/87/166 94/77/166
f 70/90/167 94/77/167 91/73/167
f 88/72/168 70/90/168 91/73/168
f 97/91/169 101/93/169 98/95/169
f 99/94/170 101/93/170 102/99/170
f 77/87/171 79/96/171 97/91/171
f 77/87/172 98/95/172 76/86/172
f 75/85/173 98/95/173 99/94/173
f 61/97/174 99/94/174 80/98/174
f 80/98/175 102/99/175 81/114/175
f 97/91/176 78/100/176 100/92/176
f 103/101/177 107/103/177 104/105/177
f 105/104/178 107/103/178 108/106/178
f 58/70/179 103/101/179 71/79/179
f 71/79/180 104/105/180 70/90/180
f 69/88/181 104/105/181 105/104/181
f 60/89/182 105/104/182 79/96/182
f 79/96/183 108/106/183 78/100/183
f 62/69/184 106/102/184 103/101/184
f 109/107/185 113/109/185 110/111/185
f 111/110/186 113/109/186 114/112/186
f 74/84/187 80/98/187 109/107/187
f 74/84/188 110/111/188 73/82/188
f 72/81/189 110/111/189 111/110/189
f 72/81/190 65/64/190 59/66/190
f 111/110/191 64/113/191 65/64/191
f 109/107/192 81/114/192 112/108/192
