# Blender 4.1.1
# www.blender.org
mtllib triangleRiceBall.mtl
o 立方体.001
v -0.553378 -0.645415 -0.837055
v -0.385008 -0.424900 0.154322
v 0.553378 -0.645415 -0.837055
v 0.385008 -0.424900 0.154322
v -0.655952 -0.387269 -0.838078
v -0.709200 -0.000000 -0.840357
v -0.434820 -0.000000 0.325320
v -0.419312 -0.351821 0.285060
v -0.483376 -0.542299 -0.053955
v -0.550910 -0.620343 -0.360964
v -0.591887 -0.643940 -0.686964
v 0.332628 -0.658609 -0.840990
v 0.000000 -0.711064 -0.843269
v -0.332628 -0.658609 -0.840990
v -0.224116 -0.477319 0.178716
v 0.000000 -0.484504 0.173596
v 0.224116 -0.477319 0.178716
v 0.483376 -0.542299 -0.053955
v 0.537722 -0.599243 -0.360964
v 0.591887 -0.643940 -0.686964
v 0.709200 0.000000 -0.840357
v 0.655952 -0.387268 -0.838078
v 0.419312 -0.351821 0.285060
v 0.434820 0.000000 0.325320
v -0.827975 -0.000000 -0.710657
v -0.787780 -0.000000 -0.344557
v -0.639339 -0.000000 0.021544
v -0.765319 -0.401453 -0.691993
v -0.733657 -0.412949 -0.344557
v -0.602828 -0.384043 0.002880
v -0.324479 -0.809237 -0.676801
v -0.312614 -0.775735 -0.450901
v -0.268875 -0.662110 -0.107262
v 0.000000 -0.829004 -0.695465
v 0.000000 -0.787370 -0.454699
v 0.000000 -0.684487 -0.149367
v 0.324479 -0.809237 -0.676801
v 0.312614 -0.775736 -0.450901
v 0.268876 -0.662110 -0.107262
v 0.765319 -0.401453 -0.691993
v 0.733657 -0.412949 -0.344557
v 0.602828 -0.384043 0.002880
v 0.827975 0.000000 -0.710657
v 0.787780 0.000000 -0.344557
v 0.639339 0.000000 0.021544
v -0.377923 -0.421441 -0.895634
v 0.000000 -0.447334 -0.900529
v 0.377923 -0.421441 -0.895634
v -0.406932 -0.000000 -0.892933
v -0.000000 -0.000000 -0.906182
v 0.406932 0.000000 -0.892933
v 0.215432 -0.253912 0.391991
v 0.000000 -0.266585 0.389627
v -0.215432 -0.253913 0.391991
v 0.218296 0.000000 0.484621
v 0.000000 0.000000 0.516355
v -0.218296 -0.000000 0.484621
v -0.553378 0.645415 -0.837055
v -0.385008 0.424900 0.154322
v 0.553378 0.645415 -0.837055
v 0.385008 0.424900 0.154322
v -0.655952 0.387268 -0.838078
v -0.709200 -0.000000 -0.840357
v -0.434820 -0.000000 0.325320
v -0.419312 0.351821 0.285060
v -0.483376 0.542299 -0.053955
v -0.550910 0.620343 -0.360964
v -0.591887 0.643940 -0.686964
v 0.332628 0.658609 -0.840990
v -0.000000 0.711064 -0.843269
v -0.332628 0.658609 -0.840990
v -0.224116 0.477319 0.178716
v -0.000000 0.484504 0.173596
v 0.224116 0.477319 0.178716
v 0.483376 0.542299 -0.053955
v 0.537722 0.599243 -0.360964
v 0.591887 0.643940 -0.686964
v 0.709200 0.000000 -0.840357
v 0.655952 0.387269 -0.838078
v 0.419312 0.351821 0.285060
v 0.434820 0.000000 0.325320
v -0.827975 -0.000000 -0.710657
v -0.787780 -0.000000 -0.344557
v -0.639339 -0.000000 0.021544
v -0.765319 0.401453 -0.691993
v -0.733657 0.412949 -0.344557
v -0.602828 0.384043 0.002880
v -0.324479 0.809237 -0.676801
v -0.312614 0.775735 -0.450901
v -0.268876 0.662110 -0.107262
v -0.000000 0.829004 -0.695465
v -0.000000 0.787370 -0.454699
v -0.000000 0.684487 -0.149367
v 0.324479 0.809237 -0.676801
v 0.312614 0.775736 -0.450901
v 0.268875 0.662110 -0.107262
v 0.765319 0.401453 -0.691993
v 0.733657 0.412949 -0.344557
v 0.602828 0.384043 0.002880
v 0.827975 0.000000 -0.710657
v 0.787780 0.000000 -0.344557
v 0.639339 0.000000 0.021544
v -0.377923 0.421441 -0.895634
v -0.000000 0.447334 -0.900529
v 0.377923 0.421441 -0.895634
v -0.406932 -0.000000 -0.892933
v -0.000000 -0.000000 -0.906182
v 0.406932 0.000000 -0.892933
v 0.215432 0.253912 0.391991
v -0.000000 0.266585 0.389627
v -0.215432 0.253913 0.391991
v 0.218296 0.000000 0.484621
v 0.000000 0.000000 0.516355
v -0.218296 -0.000000 0.484621
vn 0.9830 0.1484 -0.1079
vn 0.9256 0.1213 -0.3586
vn 0.8281 0.1055 -0.5506
vn 0.5263 0.6100 -0.5924
vn 0.6991 0.6411 -0.3167
vn 0.8127 0.5801 -0.0549
vn 0.9044 0.3603 0.2285
vn 0.7902 0.1122 0.6025
vn 0.0502 0.9841 -0.1702
vn 0.0314 0.9472 -0.3192
vn -0.0502 0.9841 -0.1702
vn -0.0314 0.9472 -0.3192
vn 0.0598 0.9982 0.0055
vn 0.5239 0.8382 -0.1518
vn 0.4239 0.8425 -0.3325
vn 0.2986 0.7796 -0.5505
vn -0.0117 0.8501 -0.5264
vn 0.0117 0.8501 -0.5264
vn -0.2986 0.7796 -0.5505
vn -0.4979 0.8025 -0.3287
vn -0.5239 0.8382 -0.1518
vn -0.0598 0.9982 0.0055
vn -0.1204 0.7345 0.6679
vn 0.1204 0.7345 0.6679
vn -0.9830 0.1484 -0.1079
vn -0.9256 0.1213 -0.3586
vn -0.9044 0.3603 0.2285
vn -0.8127 0.5801 -0.0549
vn -0.6565 0.7123 -0.2483
vn -0.5263 0.6100 -0.5924
vn -0.8281 0.1055 -0.5506
vn -0.7902 0.1122 0.6025
vn 0.0325 -0.0042 0.9995
vn -0.0138 0.0126 0.9998
vn 0.2123 0.0882 0.9732
vn 0.0283 0.2296 0.9729
vn -0.0401 0.2120 0.9764
vn -0.0311 0.2300 0.9727
vn -0.2036 0.0077 0.9790
vn 0.1713 0.0293 0.9848
vn -0.1352 0.3409 -0.9303
vn 0.0153 0.4293 -0.9030
vn -0.3382 0.8565 -0.3900
vn -0.0326 0.6895 -0.7236
vn 0.0063 0.7040 -0.7102
vn 0.0487 0.6887 -0.7234
vn 0.5675 0.2878 -0.7714
vn -0.4147 0.1215 -0.9018
vn -0.9830 0.1484 0.1079
vn -0.9256 0.1213 0.3586
vn -0.8281 0.1055 0.5506
vn -0.5263 0.6100 0.5924
vn -0.6991 0.6411 0.3167
vn -0.8127 0.5801 0.0549
vn -0.9044 0.3603 -0.2285
vn -0.7902 0.1122 -0.6025
vn -0.0502 0.9841 0.1702
vn -0.0314 0.9472 0.3192
vn 0.0502 0.9841 0.1702
vn 0.0314 0.9472 0.3192
vn -0.0598 0.9982 -0.0055
vn -0.5239 0.8382 0.1518
vn -0.4239 0.8425 0.3325
vn -0.2986 0.7796 0.5505
vn 0.0117 0.8501 0.5264
vn -0.0117 0.8501 0.5264
vn 0.2986 0.7796 0.5505
vn 0.4979 0.8025 0.3287
vn 0.5239 0.8382 0.1518
vn 0.0598 0.9982 -0.0055
vn 0.1204 0.7345 -0.6679
vn -0.1204 0.7345 -0.6679
vn 0.9830 0.1484 0.1079
vn 0.9256 0.1213 0.3586
vn 0.9044 0.3603 -0.2285
vn 0.8127 0.5801 0.0549
vn 0.6565 0.7123 0.2483
vn 0.5263 0.6100 0.5924
vn 0.8281 0.1055 0.5506
vn 0.7902 0.1122 -0.6025
vn -0.0325 -0.0042 -0.9995
vn 0.0138 0.0126 -0.9998
vn -0.2123 0.0882 -0.9732
vn -0.0283 0.2296 -0.9729
vn 0.0401 0.2120 -0.9764
vn 0.0311 0.2300 -0.9727
vn 0.2036 0.0077 -0.9790
vn -0.1713 0.0293 -0.9848
vn 0.1352 0.3409 0.9303
vn -0.0153 0.4293 0.9030
vn 0.3382 0.8565 0.3900
vn 0.0326 0.6895 0.7236
vn -0.0063 0.7040 0.7102
vn -0.0487 0.6887 0.7234
vn -0.5675 0.2878 0.7714
vn 0.4147 0.1215 0.9018
vn 0.9879 0.1295 -0.0857
vn 0.9215 0.1058 -0.3736
vn 0.8254 0.1000 -0.5557
vn 0.4085 0.8382 -0.3614
vn 0.6990 0.6413 -0.3166
vn 0.7373 0.6608 -0.1405
vn 0.6730 0.4928 0.5517
vn 0.7297 0.1450 0.6682
vn 0.0350 0.9883 -0.1484
vn 0.0292 0.9479 -0.3172
vn -0.0350 0.9883 -0.1484
vn -0.0292 0.9479 -0.3172
vn 0.4003 0.6851 0.6086
vn 0.5082 0.8520 -0.1256
vn 0.4045 0.8612 -0.3079
vn 0.3308 0.7467 -0.5771
vn 0.0145 0.8388 -0.5443
vn -0.0145 0.8388 -0.5443
vn -0.3308 0.7467 -0.5771
vn -0.4280 0.8720 -0.2375
vn -0.5528 0.8083 -0.2027
vn -0.4003 0.6851 0.6086
vn -0.0832 0.7789 0.6216
vn 0.0832 0.7789 0.6216
vn -0.9879 0.1295 -0.0857
vn -0.9215 0.1058 -0.3736
vn -0.6730 0.4928 0.5517
vn -0.6646 0.7174 -0.2088
vn -0.6990 0.6413 -0.3166
vn -0.4085 0.8382 -0.3614
vn -0.8254 0.1000 -0.5557
vn -0.7297 0.1450 0.6682
vn 0.0138 0.0126 0.9998
vn -0.0325 -0.0042 0.9995
vn 0.0311 0.2300 0.9727
vn 0.0401 0.2120 0.9764
vn -0.0283 0.2296 0.9729
vn -0.2123 0.0882 0.9732
vn -0.1713 0.0293 0.9848
vn 0.2036 0.0077 0.9790
vn -0.0153 0.4293 -0.9030
vn 0.1352 0.3409 -0.9303
vn -0.0487 0.6887 -0.7234
vn -0.0063 0.7040 -0.7102
vn 0.0326 0.6895 -0.7236
vn 0.3382 0.8565 -0.3900
vn 0.4147 0.1215 -0.9018
vn -0.5675 0.2878 -0.7714
vn -0.9879 0.1295 0.0857
vn -0.9215 0.1058 0.3736
vn -0.8254 0.1000 0.5557
vn -0.4085 0.8382 0.3614
vn -0.6990 0.6413 0.3166
vn -0.7373 0.6608 0.1405
vn -0.6730 0.4928 -0.5517
vn -0.7297 0.1450 -0.6682
vn -0.0350 0.9883 0.1484
vn -0.0292 0.9479 0.3172
vn 0.0350 0.9883 0.1484
vn 0.0292 0.9479 0.3172
vn -0.4003 0.6851 -0.6086
vn -0.5082 0.8520 0.1256
vn -0.4045 0.8612 0.3079
vn -0.3308 0.7467 0.5771
vn -0.0145 0.8388 0.5443
vn 0.0145 0.8388 0.5443
vn 0.3308 0.7467 0.5771
vn 0.4280 0.8720 0.2375
vn 0.5528 0.8083 0.2027
vn 0.4003 0.6851 -0.6086
vn 0.0832 0.7789 -0.6216
vn -0.0832 0.7789 -0.6216
vn 0.9879 0.1295 0.0857
vn 0.9215 0.1058 0.3736
vn 0.6730 0.4928 -0.5517
vn 0.6646 0.7174 0.2088
vn 0.6990 0.6413 0.3166
vn 0.4085 0.8382 0.3614
vn 0.8254 0.1000 0.5557
vn 0.7297 0.1450 -0.6682
vn -0.0138 0.0126 -0.9998
vn 0.0325 -0.0042 -0.9995
vn -0.0311 0.2300 -0.9727
vn -0.0401 0.2120 -0.9764
vn 0.0283 0.2296 -0.9729
vn 0.2123 0.0882 -0.9732
vn 0.1713 0.0293 -0.9848
vn -0.2036 0.0077 -0.9790
vn 0.0153 0.4293 0.9030
vn -0.1352 0.3409 0.9303
vn 0.0487 0.6887 0.7234
vn 0.0063 0.7040 0.7102
vn -0.0326 0.6895 0.7236
vn -0.3382 0.8565 0.3900
vn -0.4147 0.1215 0.9018
vn 0.5675 0.2878 0.7714
vt 0.483914 0.898454
vt 0.635840 0.873798
vt 0.591077 0.978201
vt 0.542523 0.743306
vt 0.583425 0.818367
vt 0.429624 0.768044
vt 0.527955 0.665468
vt 0.558833 0.682434
vt 0.587571 0.731416
vt 0.628239 0.782098
vt 0.668948 0.825898
vt 0.674681 0.885214
vt 0.693031 0.836375
vt 0.648496 0.994347
vt 0.704104 0.786750
vt 0.716702 0.721844
vt 0.744990 0.752899
vt 0.677118 0.759465
vt 0.676542 0.677767
vt 0.782484 0.715342
vt 0.757837 0.685905
vt 0.724437 0.819075
vt 0.633048 0.708559
vt 0.585145 0.653588
vt 0.622249 0.618310
vt 0.711234 0.637231
vt 0.660732 0.584551
vt 0.737933 0.593947
vt 0.784437 0.638110
vt 0.824670 0.684009
vt 0.812768 0.738573
vt 0.832878 0.708923
vt 0.767291 0.777375
vt 0.875369 0.655357
vt 0.913828 0.506167
vt 0.983525 0.620316
vt 0.753891 0.550252
vt 0.824796 0.598003
vt 0.883192 0.695123
vt 0.691815 0.560965
vt 0.677723 0.528687
vt 0.788857 0.440076
vt 0.994347 0.679036
vt 0.736759 0.867720
vt 0.899829 0.922777
vt 0.761096 0.991216
vt 0.860059 0.755331
vt 0.804203 0.817875
vt 0.980838 0.790950
vt 0.614579 0.523081
vt 0.508706 0.493987
vt 0.571655 0.452860
vt 0.528095 0.602061
vt 0.570622 0.561786
vt 0.429624 0.640215
vt 0.462052 0.552956
vt 0.661504 0.428462
vt 0.060094 0.475993
vt 0.212021 0.451336
vt 0.167257 0.555739
vt 0.118703 0.320844
vt 0.159605 0.395906
vt 0.005804 0.345582
vt 0.104135 0.243006
vt 0.135013 0.259973
vt 0.163751 0.308954
vt 0.204419 0.359637
vt 0.245128 0.403436
vt 0.250861 0.462753
vt 0.269211 0.413913
vt 0.224676 0.571885
vt 0.280284 0.364288
vt 0.292882 0.299383
vt 0.321170 0.330437
vt 0.253298 0.337003
vt 0.252722 0.255306
vt 0.358664 0.292880
vt 0.334017 0.263443
vt 0.300617 0.396614
vt 0.209228 0.286097
vt 0.161324 0.231126
vt 0.198429 0.195849
vt 0.287414 0.214770
vt 0.236912 0.162089
vt 0.314113 0.171486
vt 0.360617 0.215649
vt 0.400850 0.261548
vt 0.388948 0.316112
vt 0.409058 0.286461
vt 0.343471 0.354913
vt 0.451549 0.232895
vt 0.490008 0.083705
vt 0.559705 0.197854
vt 0.330072 0.127790
vt 0.400976 0.175541
vt 0.459373 0.272661
vt 0.267995 0.138504
vt 0.253903 0.106226
vt 0.365037 0.017614
vt 0.570527 0.256574
vt 0.312939 0.445258
vt 0.476009 0.500315
vt 0.337276 0.568754
vt 0.436239 0.332869
vt 0.380383 0.395414
vt 0.557018 0.368489
vt 0.190759 0.100619
vt 0.084886 0.071525
vt 0.147835 0.030399
vt 0.104275 0.179600
vt 0.146802 0.139324
vt 0.005804 0.217753
vt 0.038232 0.130494
vt 0.237684 0.006001
s 0
usemtl マテリアル
f 26/1/1 28/2/1 25/3/1
f 26/1/2 30/4/2 29/5/2
f 27/6/3 8/7/3 30/4/3
f 30/4/4 2/8/4 9/9/4
f 29/5/5 9/9/5 10/10/5
f 29/5/6 11/11/6 28/2/6
f 5/12/7 11/11/7 1/13/7
f 6/14/8 28/2/8 5/12/8
f 31/15/9 35/16/9 34/17/9
f 32/18/10 36/19/10 35/16/10
f 35/16/11 37/20/11 34/17/11
f 36/19/12 38/21/12 35/16/12
f 11/11/13 14/22/13 1/13/13
f 11/11/14 32/18/14 31/15/14
f 10/10/15 33/23/15 32/18/15
f 9/9/16 15/24/16 33/23/16
f 33/23/17 16/25/17 36/19/17
f 16/25/18 39/26/18 36/19/18
f 17/27/19 18/28/19 39/26/19
f 39/26/20 19/29/20 38/21/20
f 38/21/21 20/30/21 37/20/21
f 12/31/22 20/30/22 3/32/22
f 13/33/23 37/20/23 12/31/23
f 31/15/24 13/33/24 14/22/24
f 40/34/25 44/35/25 43/36/25
f 42/37/26 44/35/26 41/38/26
f 20/30/27 22/39/27 3/32/27
f 20/30/28 41/38/28 40/34/28
f 18/28/29 41/38/29 19/29/29
f 4/40/30 42/37/30 18/28/30
f 23/41/31 45/42/31 42/37/31
f 40/34/32 21/43/32 22/39/32
f 46/44/33 50/45/33 49/46/33
f 48/47/34 50/45/34 47/48/34
f 1/13/35 46/44/35 5/12/35
f 14/22/36 47/48/36 46/44/36
f 12/31/37 47/48/37 13/33/37
f 3/32/38 48/47/38 12/31/38
f 22/39/39 51/49/39 48/47/39
f 5/12/40 49/46/40 6/14/40
f 52/50/41 56/51/41 55/52/41
f 54/53/42 56/51/42 53/54/42
f 17/27/43 23/41/43 4/40/43
f 17/27/44 53/54/44 52/50/44
f 15/24/45 53/54/45 16/25/45
f 15/24/46 8/7/46 54/53/46
f 54/53/47 7/55/47 57/56/47
f 52/50/48 24/57/48 23/41/48
f 83/58/49 85/59/49 82/60/49
f 83/58/50 87/61/50 86/62/50
f 84/63/51 65/64/51 87/61/51
f 87/61/52 59/65/52 66/66/52
f 86/62/53 66/66/53 67/67/53
f 86/62/54 68/68/54 85/59/54
f 62/69/55 68/68/55 58/70/55
f 63/71/56 85/59/56 62/69/56
f 88/72/57 92/73/57 91/74/57
f 89/75/58 93/76/58 92/73/58
f 92/73/59 94/77/59 91/74/59
f 93/76/60 95/78/60 92/73/60
f 68/68/61 71/79/61 58/70/61
f 68/68/62 89/75/62 88/72/62
f 67/67/63 90/80/63 89/75/63
f 66/66/64 72/81/64 90/80/64
f 90/80/65 73/82/65 93/76/65
f 73/82/66 96/83/66 93/76/66
f 74/84/67 75/85/67 96/83/67
f 96/83/68 76/86/68 95/78/68
f 95/78/69 77/87/69 94/77/69
f 69/88/70 77/87/70 60/89/70
f 70/90/71 94/77/71 69/88/71
f 88/72/72 70/90/72 71/79/72
f 97/91/73 101/92/73 100/93/73
f 99/94/74 101/92/74 98/95/74
f 77/87/75 79/96/75 60/89/75
f 77/87/76 98/95/76 97/91/76
f 75/85/77 98/95/77 76/86/77
f 61/97/78 99/94/78 75/85/78
f 80/98/79 102/99/79 99/94/79
f 97/91/80 78/100/80 79/96/80
f 103/101/81 107/102/81 106/103/81
f 105/104/82 107/102/82 104/105/82
f 58/70/83 103/101/83 62/69/83
f 71/79/84 104/105/84 103/101/84
f 69/88/85 104/105/85 70/90/85
f 60/89/86 105/104/86 69/88/86
f 79/96/87 108/106/87 105/104/87
f 62/69/88 106/103/88 63/71/88
f 109/107/89 113/108/89 112/109/89
f 111/110/90 113/108/90 110/111/90
f 74/84/91 80/98/91 61/97/91
f 74/84/92 110/111/92 109/107/92
f 72/81/93 110/111/93 73/82/93
f 72/81/94 65/64/94 111/110/94
f 111/110/95 64/112/95 114/113/95
f 109/107/96 81/114/96 80/98/96
f 26/1/97 29/5/97 28/2/97
f 26/1/98 27/6/98 30/4/98
f 27/6/99 7/55/99 8/7/99
f 30/4/100 8/7/100 2/8/100
f 29/5/101 30/4/101 9/9/101
f 29/5/102 10/10/102 11/11/102
f 5/12/103 28/2/103 11/11/103
f 6/14/104 25/3/104 28/2/104
f 31/15/105 32/18/105 35/16/105
f 32/18/106 33/23/106 36/19/106
f 35/16/107 38/21/107 37/20/107
f 36/19/108 39/26/108 38/21/108
f 11/11/109 31/15/109 14/22/109
f 11/11/110 10/10/110 32/18/110
f 10/10/111 9/9/111 33/23/111
f 9/9/112 2/8/112 15/24/112
f 33/23/113 15/24/113 16/25/113
f 16/25/114 17/27/114 39/26/114
f 17/27/115 4/40/115 18/28/115
f 39/26/116 18/28/116 19/29/116
f 38/21/117 19/29/117 20/30/117
f 12/31/118 37/20/118 20/30/118
f 13/33/119 34/17/119 37/20/119
f 31/15/120 34/17/120 13/33/120
f 40/34/121 41/38/121 44/35/121
f 42/37/122 45/42/122 44/35/122
f 20/30/123 40/34/123 22/39/123
f 20/30/124 19/29/124 41/38/124
f 18/28/125 42/37/125 41/38/125
f 4/40/126 23/41/126 42/37/126
f 23/41/127 24/57/127 45/42/127
f 40/34/128 43/36/128 21/43/128
f 46/44/129 47/48/129 50/45/129
f 48/47/130 51/49/130 50/45/130
f 1/13/131 14/22/131 46/44/131
f 14/22/132 13/33/132 47/48/132
f 12/31/133 48/47/133 47/48/133
f 3/32/134 22/39/134 48/47/134
f 22/39/135 21/43/135 51/49/135
f 5/12/136 46/44/136 49/46/136
f 52/50/137 53/54/137 56/51/137
f 54/53/138 57/56/138 56/51/138
f 17/27/139 52/50/139 23/41/139
f 17/27/140 16/25/140 53/54/140
f 15/24/141 54/53/141 53/54/141
f 15/24/142 2/8/142 8/7/142
f 54/53/143 8/7/143 7/55/143
f 52/50/144 55/52/144 24/57/144
f 83/58/145 86/62/145 85/59/145
f 83/58/146 84/63/146 87/61/146
f 84/63/147 64/112/147 65/64/147
f 87/61/148 65/64/148 59/65/148
f 86/62/149 87/61/149 66/66/149
f 86/62/150 67/67/150 68/68/150
f 62/69/151 85/59/151 68/68/151
f 63/71/152 82/60/152 85/59/152
f 88/72/153 89/75/153 92/73/153
f 89/75/154 90/80/154 93/76/154
f 92/73/155 95/78/155 94/77/155
f 93/76/156 96/83/156 95/78/156
f 68/68/157 88/72/157 71/79/157
f 68/68/158 67/67/158 89/75/158
f 67/67/159 66/66/159 90/80/159
f 66/66/160 59/65/160 72/81/160
f 90/80/161 72/81/161 73/82/161
f 73/82/162 74/84/162 96/83/162
f 74/84/163 61/97/163 75/85/163
f 96/83/164 75/85/164 76/86/164
f 95/78/165 76/86/165 77/87/165
f 69/88/166 94/77/166 77/87/166
f 70/90/167 91/74/167 94/77/167
f 88/72/168 91/74/168 70/90/168
f 97/91/169 98/95/169 101/92/169
f 99/94/170 102/99/170 101/92/170
f 77/87/171 97/91/171 79/96/171
f 77/87/172 76/86/172 98/95/172
f 75/85/173 99/94/173 98/95/173
f 61/97/174 80/98/174 99/94/174
f 80/98/175 81/114/175 102/99/175
f 97/91/176 100/93/176 78/100/176
f 103/101/177 104/105/177 107/102/177
f 105/104/178 108/106/178 107/102/178
f 58/70/179 71/79/179 103/101/179
f 71/79/180 70/90/180 104/105/180
f 69/88/181 105/104/181 104/105/181
f 60/89/182 79/96/182 105/104/182
f 79/96/183 78/100/183 108/106/183
f 62/69/184 103/101/184 106/103/184
f 109/107/185 110/111/185 113/108/185
f 111/110/186 114/113/186 113/108/186
f 74/84/187 109/107/187 80/98/187
f 74/84/188 73/82/188 110/111/188
f 72/81/189 111/110/189 110/111/189
f 72/81/190 59/65/190 65/64/190
f 111/110/191 65/64/191 64/112/191
f 109/107/192 112/109/192 81/114/192
