# Blender 4.2.1 LTS
# www.blender.org
mtllib fullStomach3.mtl
o 3
v 0.200294 0.370000 0.975120
v -0.259057 0.370000 0.975120
v -0.259057 0.370000 1.241265
v 0.249980 0.370000 1.241265
v 0.249980 0.370000 1.032233
v 0.268207 0.370000 0.986664
v 0.317267 0.370000 0.962952
v 0.633769 0.370000 0.962952
v 0.683666 0.370000 0.986674
v 0.701124 0.370000 1.032396
v 0.701124 0.370000 1.622965
v 0.683666 0.370000 1.668688
v 0.633769 0.370000 1.692410
v -0.642914 0.370000 1.692410
v -0.691974 0.370000 1.668697
v -0.710201 0.370000 1.623129
v -0.710201 0.370000 0.872991
v -0.659828 0.370000 0.799915
v -0.610933 0.370000 0.764235
v -0.660216 0.370000 0.733872
v -0.710201 0.370000 0.657467
v -0.710201 0.370000 -0.178430
v -0.691974 0.370000 -0.223999
v -0.642914 0.370000 -0.247711
v 0.633769 0.370000 -0.247711
v 0.683667 0.370000 -0.223989
v 0.701124 0.370000 -0.178267
v 0.701124 0.370000 0.398387
v 0.683666 0.370000 0.444109
v 0.633769 0.370000 0.467831
v 0.317267 0.370000 0.467831
v 0.268207 0.370000 0.444119
v 0.249980 0.370000 0.398550
v 0.249980 0.370000 0.203434
v -0.259057 0.370000 0.203434
v -0.259057 0.370000 0.523976
v 0.200458 0.370000 0.523976
v 0.246026 0.370000 0.542203
v 0.269739 0.370000 0.591263
v 0.269739 0.370000 0.907765
v 0.246017 0.370000 0.957663
v 0.220580 -0.260000 1.085120
v 0.220580 0.260000 1.085120
v 0.200294 0.370000 0.975120
v -0.149057 -0.260000 1.085120
v -0.149057 0.260000 1.085120
v -0.259057 0.370000 0.975120
v -0.149057 -0.260000 1.131265
v -0.149057 0.260000 1.131265
v -0.259057 0.370000 1.241265
v 0.139980 -0.260000 1.131265
v 0.139980 0.260000 1.131265
v 0.249980 0.370000 1.241265
v 0.139980 -0.260000 1.011049
v 0.139980 0.260000 1.011049
v 0.249980 0.370000 1.032233
v 0.181921 -0.260000 0.906194
v 0.181921 0.260000 0.906194
v 0.268207 0.370000 0.986664
v 0.292078 -0.260000 0.852952
v 0.292078 0.260000 0.852952
v 0.317267 0.370000 0.962952
v 0.658585 -0.260000 0.852952
v 0.658585 0.260000 0.852952
v 0.633769 0.370000 0.962952
v 0.770707 -0.260000 0.906255
v 0.770707 0.260000 0.906255
v 0.683666 0.370000 0.986674
v 0.811124 -0.260000 1.012110
v 0.811124 0.260000 1.012110
v 0.701124 0.370000 1.032396
v 0.811124 -0.260000 1.643251
v 0.811124 0.260000 1.643251
v 0.701124 0.370000 1.622965
v 0.770707 -0.260000 1.749106
v 0.770707 0.260000 1.749106
v 0.683666 0.370000 1.668688
v 0.658585 -0.260000 1.802410
v 0.658585 0.260000 1.802410
v 0.633769 0.370000 1.692410
v -0.668103 -0.260000 1.802410
v -0.668103 0.260000 1.802410
v -0.642914 0.370000 1.692410
v -0.778259 -0.260000 1.749167
v -0.778259 0.260000 1.749167
v -0.691974 0.370000 1.668697
v -0.820201 -0.260000 1.644313
v -0.820201 0.260000 1.644313
v -0.710201 0.370000 1.623129
v -0.820201 -0.260000 0.838752
v -0.820201 0.260000 0.838752
v -0.710201 0.370000 0.872991
v -0.739780 -0.260000 0.722084
v -0.739780 0.260000 0.722084
v -0.696478 0.319575 0.764237
v -0.659828 0.370000 0.799915
v -0.808119 -0.260000 0.771953
v -0.808119 0.260000 0.771953
v -0.701324 0.319575 0.767773
v -0.684768 0.328811 0.767125
v -0.610933 0.370000 0.764235
v -0.738823 -0.260000 0.814645
v -0.738823 0.260000 0.814645
v -0.689650 0.328811 0.764117
v -0.660216 0.370000 0.733872
v -0.820201 -0.260000 0.690252
v -0.820201 0.260000 0.690252
v -0.710201 0.370000 0.657467
v -0.820201 -0.260000 -0.199614
v -0.820201 0.260000 -0.199614
v -0.710201 0.370000 -0.178430
v -0.778259 -0.260000 -0.304469
v -0.778259 0.260000 -0.304469
v -0.691974 0.370000 -0.223999
v -0.668103 -0.260000 -0.357711
v -0.668103 0.260000 -0.357711
v -0.642914 0.370000 -0.247711
v 0.658586 -0.260000 -0.357711
v 0.658586 0.260000 -0.357711
v 0.633769 0.370000 -0.247711
v 0.770707 -0.260000 -0.304407
v 0.770707 0.260000 -0.304407
v 0.683667 0.370000 -0.223989
v 0.811124 -0.260000 -0.198553
v 0.811124 0.260000 -0.198553
v 0.701124 0.370000 -0.178267
v 0.811124 -0.260000 0.418673
v 0.811124 0.260000 0.418673
v 0.701124 0.370000 0.398387
v 0.770707 -0.260000 0.524528
v 0.770707 0.260000 0.524528
v 0.683666 0.370000 0.444109
v 0.658585 -0.260000 0.577831
v 0.658585 0.260000 0.577831
v 0.633769 0.370000 0.467831
v 0.292078 -0.260000 0.577831
v 0.292078 0.260000 0.577831
v 0.317267 0.370000 0.467831
v 0.181921 -0.260000 0.524589
v 0.181921 0.260000 0.524589
v 0.268207 0.370000 0.444119
v 0.139980 -0.260000 0.419734
v 0.139980 0.260000 0.419734
v 0.249980 0.370000 0.398550
v 0.139980 -0.260000 0.313434
v 0.139980 0.260000 0.313434
v 0.249980 0.370000 0.203434
v -0.149057 -0.260000 0.313434
v -0.149057 0.260000 0.313434
v -0.259057 0.370000 0.203434
v -0.149057 -0.260000 0.413976
v -0.149057 0.260000 0.413976
v -0.259057 0.370000 0.523976
v 0.221642 -0.260000 0.413976
v 0.221642 0.260000 0.413976
v 0.200458 0.370000 0.523976
v 0.326496 -0.260000 0.455918
v 0.326496 0.260000 0.455918
v 0.246026 0.370000 0.542203
v 0.379739 -0.260000 0.566074
v 0.379739 0.260000 0.566074
v 0.269739 0.370000 0.591263
v 0.379739 -0.260000 0.932582
v 0.379739 0.260000 0.932582
v 0.269739 0.370000 0.907765
v 0.326435 -0.260000 1.044703
v 0.326435 0.260000 1.044703
v 0.246017 0.370000 0.957663
vn -0.9118 0.3712 0.1756
vn -0.6594 0.7233 -0.2052
vn -0.8875 0.3687 -0.2763
vn -0.2074 0.3701 0.9056
vn 0.2042 -0.3732 0.9050
vn 0.2044 0.3702 0.9062
vn 0.5789 0.5743 -0.5789
vn 0.5503 -0.6280 0.5502
vn 0.5789 0.5743 0.5789
vn 0.4082 0.8165 0.4082
vn 0.4083 0.8165 -0.4082
vn -0.5789 0.5743 -0.5789
vn 0.5684 -0.5947 -0.5685
vn 0.1272 0.7130 0.6895
vn 0.1684 0.3715 0.9130
vn -0.9118 0.3712 -0.1756
vn -0.5565 -0.6169 -0.5565
vn -0.4082 0.8165 -0.4082
vn -0.6880 0.7135 -0.1325
vn -0.6798 0.3686 -0.6340
vn -0.9136 -0.3666 -0.1760
vn -0.4987 0.7314 -0.4651
vn -0.2074 0.3701 -0.9056
vn -0.6821 -0.3607 -0.6361
vn -0.1558 0.7161 -0.6804
vn 0.2044 0.3702 -0.9062
vn -0.2075 -0.3690 -0.9060
vn -0.4987 0.7314 0.4651
vn -0.6880 0.7135 0.1325
vn 0.6827 0.3687 -0.6308
vn 0.2048 -0.3651 -0.9081
vn -0.2071 -0.3731 -0.9044
vn 0.9130 0.3715 -0.1684
vn 0.6852 -0.3603 -0.6330
vn 0.4997 0.7329 -0.4617
vn 0.6895 0.7130 -0.1272
vn 0.4997 0.7329 0.4617
vn 0.6827 0.3687 0.6308
vn 0.6895 0.7130 0.1272
vn 0.9130 0.3715 0.1684
vn 0.9147 -0.3671 0.1687
vn 0.6851 -0.3606 0.6329
vn 0.1537 0.7158 -0.6812
vn 0.1537 0.7158 0.6812
vn -0.5789 0.5743 0.5789
vn 0.4083 0.8165 0.4082
vn -0.1558 0.7161 0.6804
vn -0.6798 0.3686 0.6340
vn -0.2079 -0.3650 0.9075
vn -0.6822 -0.3604 0.6362
vn -0.9112 -0.3728 0.1755
vn -0.5458 -0.1819 0.8179
vn -0.8899 -0.3626 -0.2769
vn 0.1756 0.3712 -0.9118
vn 0.4651 0.7314 -0.4987
vn 0.6340 0.3686 -0.6798
vn -0.5031 0.7121 -0.4897
vn 0.9088 -0.4157 -0.0356
vn -0.4919 0.2355 0.8382
vn -0.6631 0.7220 0.1976
vn -0.5682 -0.1832 -0.8022
vn 0.8817 0.4706 -0.0345
vn -0.4865 0.8735 0.0190
vn -0.4872 0.7155 0.5007
vn 0.4865 -0.8735 -0.0190
vn 0.8669 -0.4340 -0.2453
vn -0.8908 0.3688 0.2655
vn -0.5273 0.2249 -0.8194
vn -0.4871 0.7157 0.5005
vn -0.8897 -0.3716 0.2652
vn -0.9136 -0.3667 -0.1759
vn 0.4082 0.8165 -0.4083
vn 0.9127 -0.3725 -0.1683
vn 0.1685 -0.3706 0.9134
vn 0.2048 -0.3652 -0.9081
vn 0.6851 -0.3603 -0.6331
vn 0.9127 -0.3723 -0.1684
vn 0.9148 -0.3671 0.1687
vn 0.2045 -0.3690 0.9066
vn -0.2078 -0.3650 0.9075
vn -0.0000 1.0000 -0.0000
vn -0.9136 -0.3665 0.1759
vn -0.4082 0.8165 0.4082
vn -0.5684 -0.5947 0.5685
vn 0.5549 -0.6198 0.5549
vn 0.5728 -0.5862 -0.5729
vn 0.1325 0.7135 -0.6880
vn 0.1760 -0.3666 -0.9136
vn 0.9056 0.3701 -0.2074
vn 0.6361 -0.3607 -0.6821
vn 0.6804 0.7161 -0.1558
vn 0.9062 0.3702 0.2044
vn 0.9060 -0.3690 -0.2075
vn 0.6812 0.7158 0.1537
vn 0.6308 0.3687 0.6827
vn 0.9081 -0.3652 0.2048
vn 0.4617 0.7329 0.4997
vn 0.6331 -0.3603 0.6852
vt 0.416667 0.521739
vt 0.437500 1.000000
vt 0.437500 0.521739
vt 0.375000 0.521739
vt 0.312500 0.478261
vt 0.312500 0.521739
vt 0.062500 0.521739
vt 0.041667 0.478261
vt 0.041667 0.521739
vt 0.041667 1.000000
vt 0.062500 1.000000
vt 0.083333 0.521739
vt 0.062500 0.478261
vt 0.000000 1.000000
vt 0.000000 0.521739
vt 0.104167 0.521739
vt 0.083333 0.478261
vt 0.083333 1.000000
vt 0.104167 1.000000
vt 0.125000 0.521739
vt 0.104167 0.478261
vt 0.125000 1.000000
vt 0.145833 0.521739
vt 0.125000 0.478261
vt 0.145833 1.000000
vt 0.166667 0.521739
vt 0.145833 0.478261
vt 0.812500 0.521739
vt 0.791667 1.000000
vt 0.812500 1.000000
vt 0.187500 0.521739
vt 0.166667 0.478261
vt 0.645833 0.521739
vt 0.583333 0.478261
vt 0.583333 0.521739
vt 0.208333 0.521739
vt 0.187500 0.478261
vt 0.187500 1.000000
vt 0.208333 1.000000
vt 0.729167 1.000000
vt 0.750000 0.521739
vt 0.729167 0.521739
vt 0.270833 1.000000
vt 0.270833 0.521739
vt 0.291667 1.000000
vt 0.291667 0.521739
vt 0.270833 0.478261
vt 0.291667 0.478261
vt 0.583333 1.000000
vt 0.645833 1.000000
vt 0.312500 1.000000
vt 0.833333 0.521739
vt 0.854167 1.000000
vt 0.854167 0.521739
vt 0.375000 1.000000
vt 0.395833 0.521739
vt 0.375000 0.478261
vt 0.395833 1.000000
vt 0.395833 0.478261
vt 0.416667 1.000000
vt 0.416667 0.478261
vt 0.166667 1.000000
vt 0.458333 0.521739
vt 0.437500 0.478261
vt 0.895833 0.521739
vt 0.916667 1.000000
vt 0.916667 0.521739
vt 0.458333 1.000000
vt 0.479167 0.521739
vt 0.458333 0.478261
vt 0.541667 0.521739
vt 0.520833 1.000000
vt 0.541667 1.000000
vt 0.500000 0.521739
vt 0.479167 0.478261
vt 0.770833 1.000000
vt 0.750000 1.000000
vt 0.479167 0.826087
vt 0.500000 0.826087
vt 0.479167 0.782609
vt 0.458333 0.782609
vt 0.520833 0.521739
vt 0.500000 0.478261
vt 0.500000 1.000000
vt 0.520833 0.478261
vt 0.562500 0.521739
vt 0.541667 0.478261
vt 0.875000 1.000000
vt 0.875000 0.521739
vt 0.562500 1.000000
vt 0.208333 0.478261
vt 0.562500 0.478261
vt 0.000000 0.478261
vt 0.666667 0.521739
vt 0.645833 0.478261
vt 0.687500 0.521739
vt 0.666667 1.000000
vt 0.687500 1.000000
vt 0.666667 0.478261
vt 0.708333 0.521739
vt 0.687500 0.478261
vt 0.708333 0.478261
vt 0.729167 0.478261
vt 0.770833 0.521739
vt 0.750000 0.478261
vt 0.791667 0.521739
vt 0.770833 0.478261
vt 0.791667 0.478261
vt 0.042553 0.000000
vt 0.957447 0.000000
vt 0.893617 0.000000
vt 0.812500 0.478261
vt 0.833333 1.000000
vt 0.833333 0.478261
vt 0.854167 0.478261
vt 0.875000 0.478261
vt 0.895833 1.000000
vt 0.895833 0.478261
vt 0.937500 0.521739
vt 0.916667 0.478261
vt 0.937500 1.000000
vt 0.958333 0.521739
vt 0.937500 0.478261
vt 0.958333 1.000000
vt 0.979167 0.521739
vt 0.958333 0.478261
vt 0.979167 1.000000
vt 0.708333 1.000000
vt 1.000000 0.521739
vt 0.979167 0.478261
vt 0.479167 1.000000
vt 0.829787 0.000000
vt 0.808511 0.000000
vt 0.787234 0.000000
vt 0.765957 0.000000
vt 0.744681 0.000000
vt 0.723404 0.000000
vt 0.702128 0.000000
vt 0.680851 0.000000
vt 0.659574 0.000000
vt 0.595745 0.000000
vt 0.574468 0.000000
vt 0.553191 0.000000
vt 0.531915 0.000000
vt 0.510638 0.000000
vt 0.489362 0.000000
vt 0.468085 0.000000
vt 0.446809 0.000000
vt 0.425532 0.000000
vt 0.404255 0.000000
vt 0.382979 0.000000
vt 0.319149 0.000000
vt 0.297872 0.000000
vt 0.276596 0.000000
vt 0.212766 0.000000
vt 0.191489 0.000000
vt 0.170213 0.000000
vt 0.148936 0.000000
vt 0.127660 0.000000
vt 0.106383 0.000000
vt 0.085106 0.000000
vt 0.851064 0.000000
vt 0.063830 0.000000
vt 0.872340 0.000000
vt 0.936170 0.000000
vt 0.914894 0.000000
vt 0.000000 0.000000
vt 1.000000 0.000000
vt 0.978723 0.000000
vt 1.000000 0.478261
vt 1.000000 1.000000
s 1
usemtl マテリアル.026
f 88/1/1 92/2/2 91/3/3
f 82/4/4 78/5/5 79/6/6
f 49/7/7 45/8/8 46/9/9
f 49/7/7 47/10/10 50/11/11
f 52/12/12 48/13/13 49/7/7
f 44/14/14 46/9/9 43/15/15
f 55/16/16 51/17/17 52/12/12
f 52/12/12 50/11/11 53/18/18
f 56/19/19 52/12/12 53/18/18
f 58/20/20 54/21/21 55/16/16
f 55/16/16 59/22/22 58/20/20
f 61/23/23 57/24/24 58/20/20
f 61/23/23 59/22/22 62/25/25
f 64/26/26 60/27/27 61/23/23
f 143/28/1 141/29/28 144/30/29
f 67/31/30 63/32/31 64/26/26
f 119/33/26 115/34/32 116/35/23
f 70/36/33 66/37/34 67/31/30
f 70/36/33 68/38/35 71/39/36
f 132/40/37 134/41/6 131/42/38
f 70/36/33 74/43/39 73/44/40
f 77/45/37 73/44/40 74/43/39
f 76/46/38 72/47/41 73/44/40
f 79/6/6 75/48/42 76/46/38
f 119/33/26 117/49/25 120/50/43
f 79/6/6 77/45/37 80/51/44
f 146/52/45 150/53/46 149/54/9
f 79/6/6 83/55/47 82/4/4
f 85/56/48 81/57/49 82/4/4
f 82/4/4 86/58/28 85/56/48
f 88/1/1 84/59/50 85/56/48
f 88/1/1 86/58/28 89/60/29
f 91/3/3 87/61/51 88/1/1
f 68/38/35 64/26/26 65/62/43
f 94/63/52 90/64/53 91/3/3
f 155/65/54 159/66/55 158/67/56
f 96/68/57 94/63/52 91/3/3
f 98/69/58 93/70/59 94/63/52
f 110/71/16 108/72/60 111/73/19
f 103/74/61 97/75/62 98/69/58
f 138/76/47 134/41/6 135/77/44
f 103/74/61 100/78/63 104/79/64
f 99/80/65 95/81/66 96/68/57
f 107/82/67 102/83/68 103/74/61
f 107/82/67 104/79/64 105/84/69
f 110/71/16 106/85/70 107/82/67
f 113/86/20 109/87/71 110/71/16
f 64/26/26 62/25/25 65/62/43
f 149/54/9 153/88/72 152/89/7
f 114/90/22 110/71/16 111/73/19
f 73/44/40 69/91/73 70/36/33
f 116/35/23 112/92/24 113/86/20
f 46/9/9 42/93/74 43/15/15
f 116/35/23 114/90/22 117/49/25
f 99/80/65 94/63/52 95/81/66
f 122/94/30 118/95/75 119/33/26
f 125/96/33 123/97/35 126/98/36
f 125/96/33 121/99/76 122/94/30
f 128/100/40 124/101/77 125/96/33
f 123/97/35 119/33/26 120/50/43
f 131/42/38 127/102/78 128/100/40
f 128/100/40 132/40/37 131/42/38
f 134/41/6 130/103/42 131/42/38
f 137/104/4 133/105/79 134/41/6
f 140/106/48 136/107/80 137/104/4
f 137/104/4 141/29/28 140/106/48
f 143/28/1 139/108/50 140/106/48
s 0
f 2/109/81 39/110/81 36/111/81
s 1
f 146/52/45 142/112/82 143/28/1
f 146/52/45 144/30/29 147/113/83
f 149/54/9 145/114/84 146/52/45
f 152/89/7 148/115/85 149/54/9
f 155/65/54 151/116/86 152/89/7
f 152/89/7 156/117/87 155/65/54
f 158/67/56 154/118/88 155/65/54
f 161/119/89 157/120/90 158/67/56
f 161/119/89 159/66/55 162/121/91
f 164/122/92 160/123/93 161/119/89
f 164/122/92 162/121/91 165/124/94
f 167/125/95 163/126/96 164/122/92
f 100/78/63 105/84/69 104/79/64
f 168/127/97 164/122/92 165/124/94
f 125/96/33 129/128/39 128/100/40
f 43/129/15 166/130/98 167/125/95
f 168/127/97 43/129/15 167/125/95
f 88/1/1 89/60/29 92/2/2
f 82/4/4 81/57/49 78/5/5
f 49/7/7 48/13/13 45/8/8
f 49/7/7 46/9/9 47/10/10
f 52/12/12 51/17/17 48/13/13
f 44/14/14 47/10/10 46/9/9
f 55/16/16 54/21/21 51/17/17
f 52/12/12 49/7/7 50/11/11
f 56/19/19 55/16/16 52/12/12
f 58/20/20 57/24/24 54/21/21
f 55/16/16 56/19/19 59/22/22
f 61/23/23 60/27/27 57/24/24
f 61/23/23 58/20/20 59/22/22
f 64/26/26 63/32/31 60/27/27
f 143/28/1 140/106/48 141/29/28
f 67/31/30 66/37/34 63/32/31
f 119/33/26 118/95/75 115/34/32
f 70/36/33 69/91/73 66/37/34
f 70/36/33 67/31/30 68/38/35
f 132/40/37 135/77/44 134/41/6
f 70/36/33 71/39/36 74/43/39
f 77/45/37 76/46/38 73/44/40
f 76/46/38 75/48/42 72/47/41
f 79/6/6 78/5/5 75/48/42
f 119/33/26 116/35/23 117/49/25
f 79/6/6 76/46/38 77/45/37
f 146/52/45 147/113/83 150/53/46
f 79/6/6 80/51/44 83/55/47
f 85/56/48 84/59/50 81/57/49
f 82/4/4 83/55/47 86/58/28
f 88/1/1 87/61/51 84/59/50
f 88/1/1 85/56/48 86/58/28
f 91/3/3 90/64/53 87/61/51
f 68/38/35 67/31/30 64/26/26
f 94/63/52 93/70/59 90/64/53
f 155/65/54 156/117/87 159/66/55
f 91/3/3 92/2/2 96/68/57
f 96/68/57 95/81/66 94/63/52
f 98/69/58 97/75/62 93/70/59
f 110/71/16 107/82/67 108/72/60
f 103/74/61 102/83/68 97/75/62
f 138/76/47 137/104/4 134/41/6
f 103/74/61 98/69/58 99/80/65
f 103/74/61 99/80/65 100/78/63
f 96/68/57 101/131/63 100/78/63
f 96/68/57 100/78/63 99/80/65
f 107/82/67 106/85/70 102/83/68
f 105/84/69 108/72/60 107/82/67
f 107/82/67 103/74/61 104/79/64
f 110/71/16 109/87/71 106/85/70
f 113/86/20 112/92/24 109/87/71
f 64/26/26 61/23/23 62/25/25
f 149/54/9 150/53/46 153/88/72
f 114/90/22 113/86/20 110/71/16
f 73/44/40 72/47/41 69/91/73
f 116/35/23 115/34/32 112/92/24
f 46/9/9 45/8/8 42/93/74
f 116/35/23 113/86/20 114/90/22
f 99/80/65 98/69/58 94/63/52
f 122/94/30 121/99/76 118/95/75
f 125/96/33 122/94/30 123/97/35
f 125/96/33 124/101/77 121/99/76
f 128/100/40 127/102/78 124/101/77
f 123/97/35 122/94/30 119/33/26
f 131/42/38 130/103/42 127/102/78
f 128/100/40 129/128/39 132/40/37
f 134/41/6 133/105/79 130/103/42
f 137/104/4 136/107/80 133/105/79
f 140/106/48 139/108/50 136/107/80
f 137/104/4 138/76/47 141/29/28
f 143/28/1 142/112/82 139/108/50
s 0
f 33/132/81 32/133/81 31/134/81
f 31/134/81 30/135/81 29/136/81
f 29/136/81 28/137/81 27/138/81
f 27/138/81 26/139/81 25/140/81
f 25/140/81 24/141/81 23/142/81
f 23/142/81 22/143/81 21/144/81
f 21/144/81 20/145/81 19/146/81
f 19/146/81 18/147/81 17/148/81
f 17/148/81 16/149/81 15/150/81
f 15/150/81 14/151/81 13/152/81
f 13/152/81 12/153/81 11/154/81
f 11/154/81 10/155/81 9/156/81
f 9/156/81 8/157/81 7/158/81
f 7/158/81 6/159/81 5/160/81
f 7/158/81 5/160/81 4/161/81
f 11/154/81 9/156/81 7/158/81
f 15/150/81 13/152/81 11/154/81
f 19/146/81 17/148/81 15/150/81
f 23/142/81 21/144/81 19/146/81
f 27/138/81 25/140/81 23/142/81
f 31/134/81 29/136/81 27/138/81
f 34/162/81 33/132/81 31/134/81
f 34/162/81 31/134/81 27/138/81
f 11/154/81 7/158/81 4/161/81
f 11/154/81 4/161/81 3/163/81
f 34/162/81 27/138/81 23/142/81
f 35/164/81 34/162/81 23/142/81
f 35/164/81 23/142/81 19/146/81
f 38/165/81 37/166/81 36/111/81
f 36/111/81 35/164/81 19/146/81
f 15/150/81 11/154/81 3/163/81
f 2/109/81 1/167/81 41/168/81
f 15/150/81 3/163/81 2/109/81
f 36/111/81 19/146/81 15/150/81
f 39/110/81 38/165/81 36/111/81
f 41/168/81 40/169/81 39/110/81
f 36/111/81 15/150/81 2/109/81
f 2/109/81 41/168/81 39/110/81
s 1
f 146/52/45 145/114/84 142/112/82
f 146/52/45 143/28/1 144/30/29
f 149/54/9 148/115/85 145/114/84
f 152/89/7 151/116/86 148/115/85
f 155/65/54 154/118/88 151/116/86
f 152/89/7 153/88/72 156/117/87
f 158/67/56 157/120/90 154/118/88
f 161/119/89 160/123/93 157/120/90
f 161/119/89 158/67/56 159/66/55
f 164/122/92 163/126/96 160/123/93
f 164/122/92 161/119/89 162/121/91
f 167/125/95 166/130/98 163/126/96
f 100/78/63 101/131/63 105/84/69
f 168/127/97 167/125/95 164/122/92
f 125/96/33 126/98/36 129/128/39
f 43/129/15 42/170/74 166/130/98
f 168/127/97 44/171/14 43/129/15
