# Blender 4.2.1 LTS
# www.blender.org
mtllib fullStomachPercent.mtl
o テキスト.001
v 0.626650 0.370000 1.321988
v 0.457132 0.370000 1.321988
v 0.457132 0.370000 1.571205
v 0.626650 0.370000 1.571205
v -0.415759 0.370000 0.183434
v -0.585277 0.370000 0.183434
v -0.585277 0.370000 0.432650
v -0.415759 0.370000 0.432650
v -0.982506 0.370000 0.825452
v -0.996422 0.370000 0.790662
v -0.996422 0.370000 -0.174579
v -0.982506 0.370000 -0.209368
v -0.944554 0.370000 -0.227711
v -0.056482 0.370000 -0.227711
v -0.017898 0.370000 -0.209368
v -0.004615 0.370000 -0.174578
v -0.004615 0.370000 0.403554
v 0.248397 0.370000 -0.174578
v 0.277494 0.370000 -0.209368
v 0.323036 0.370000 -0.227711
v 0.641831 0.370000 -0.227711
v 0.672825 0.370000 -0.207470
v 0.669662 0.370000 -0.174578
v 0.195265 0.370000 0.910843
v 0.985927 0.370000 0.910843
v 1.024512 0.370000 0.929187
v 1.037795 0.370000 0.963976
v 1.037795 0.370000 1.929217
v 1.024512 0.370000 1.964006
v 0.985927 0.370000 1.982349
v 0.097855 0.370000 1.982349
v 0.059903 0.370000 1.964006
v 0.045988 0.370000 1.929217
v 0.045988 0.370000 1.253675
v -0.248771 0.370000 1.927952
v -0.277868 0.370000 1.963373
v -0.323410 0.370000 1.981084
v -0.642205 0.370000 1.981084
v -0.673199 0.370000 1.960843
v -0.670037 0.370000 1.927952
v -0.196904 0.370000 0.843795
v -0.944555 0.370000 0.843795
v 0.516650 -0.260000 1.431988
v 0.516650 0.260000 1.431988
v 0.538433 0.281783 1.410205
v 0.626650 0.370000 1.321988
v 0.567132 -0.260000 1.431988
v 0.567132 0.260000 1.431988
v 0.545349 0.281783 1.410205
v 0.457132 0.370000 1.321988
v 0.567132 -0.260000 1.461205
v 0.567132 0.260000 1.461205
v 0.545349 0.281783 1.482988
v 0.457132 0.370000 1.571205
v 0.516650 -0.260000 1.461205
v 0.516650 0.260000 1.461205
v 0.538433 0.281783 1.482988
v 0.626650 0.370000 1.571205
v -0.525759 -0.260000 0.293434
v -0.525759 0.260000 0.293434
v -0.503976 0.281783 0.271650
v -0.415759 0.370000 0.183434
v -0.475277 -0.260000 0.293434
v -0.475277 0.260000 0.293434
v -0.497060 0.281783 0.271650
v -0.585277 0.370000 0.183434
v -0.475277 -0.260000 0.322650
v -0.475277 0.260000 0.322650
v -0.497060 0.281783 0.344434
v -0.585277 0.370000 0.432650
v -0.525759 -0.260000 0.322650
v -0.525759 0.260000 0.322650
v -0.503976 0.281783 0.344434
v -0.415759 0.370000 0.432650
v -1.068792 -0.260000 0.905922
v -1.068792 0.260000 0.905922
v -0.982506 0.370000 0.825452
v -1.106422 -0.260000 0.811846
v -1.106422 0.260000 0.811846
v -0.996422 0.370000 0.790662
v -1.106422 -0.260000 -0.195763
v -1.106422 0.260000 -0.195763
v -0.996422 0.370000 -0.174579
v -1.068792 -0.260000 -0.289838
v -1.068792 0.260000 -0.289838
v -0.982506 0.370000 -0.209368
v -0.969744 -0.260000 -0.337711
v -0.969744 0.260000 -0.337711
v -0.944554 0.370000 -0.227711
v -0.031665 -0.260000 -0.337711
v -0.031665 0.260000 -0.337711
v -0.056482 0.370000 -0.227711
v 0.069142 -0.260000 -0.289786
v 0.069142 0.260000 -0.289786
v -0.017898 0.370000 -0.209368
v 0.105385 -0.260000 -0.194864
v 0.105385 0.260000 -0.194864
v -0.004615 0.370000 -0.174578
v 0.105385 -0.260000 -0.122162
v 0.105385 0.260000 -0.122162
v -0.004615 0.370000 0.403554
v 0.153930 -0.260000 -0.233087
v 0.153930 0.260000 -0.233087
v 0.248397 0.370000 -0.174578
v 0.210811 -0.260000 -0.301097
v 0.210811 0.260000 -0.301097
v 0.277494 0.370000 -0.209368
v 0.301715 -0.260000 -0.337711
v 0.301715 0.260000 -0.337711
v 0.323036 0.370000 -0.227711
v 0.674568 -0.260000 -0.337711
v 0.674568 0.260000 -0.337711
v 0.641831 0.370000 -0.227711
v 0.788689 -0.260000 -0.263183
v 0.788689 0.260000 -0.263183
v 0.672825 0.370000 -0.207470
v 0.777479 -0.260000 -0.146594
v 0.777479 0.260000 -0.146594
v 0.669662 0.370000 -0.174578
v 0.363389 -0.260000 0.800843
v 0.363389 0.260000 0.800843
v 0.346159 0.271274 0.812117
v 0.195265 0.370000 0.910843
v 0.352132 -0.260000 0.800843
v 0.352132 0.260000 0.800843
v 0.352132 0.271274 0.812117
v 1.010744 -0.260000 0.800843
v 1.010744 0.260000 0.800843
v 0.985927 0.370000 0.910843
v 1.111552 -0.260000 0.848768
v 1.111552 0.260000 0.848768
v 1.024512 0.370000 0.929187
v 1.147795 -0.260000 0.943690
v 1.147795 0.260000 0.943690
v 1.037795 0.370000 0.963976
v 1.147795 -0.260000 1.949503
v 1.147795 0.260000 1.949503
v 1.037795 0.370000 1.929217
v 1.111552 -0.260000 2.044424
v 1.111552 0.260000 2.044424
v 1.024512 0.370000 1.964006
v 1.010744 -0.260000 2.092349
v 1.010744 0.260000 2.092349
v 0.985927 0.370000 1.982349
v 0.072666 -0.260000 2.092349
v 0.072666 0.260000 2.092349
v 0.097855 0.370000 1.982349
v -0.026382 -0.260000 2.044476
v -0.026382 0.260000 2.044476
v 0.059903 0.370000 1.964006
v -0.064012 -0.260000 1.950401
v -0.064012 0.260000 1.950401
v 0.045988 0.370000 1.929217
v -0.064012 -0.260000 1.779929
v -0.064012 0.260000 1.779929
v 0.045988 0.370000 1.253675
v -0.154090 -0.260000 1.985987
v -0.154090 0.260000 1.985987
v -0.248771 0.370000 1.927952
v -0.211152 -0.260000 2.055453
v -0.211152 0.260000 2.055453
v -0.277868 0.370000 1.963373
v -0.302774 -0.260000 2.091084
v -0.302774 0.260000 2.091084
v -0.323410 0.370000 1.981084
v -0.674942 -0.260000 2.091084
v -0.674942 0.260000 2.091084
v -0.642205 0.370000 1.981084
v -0.789063 -0.260000 2.016556
v -0.789063 0.260000 2.016556
v -0.673199 0.370000 1.960843
v -0.777856 -0.260000 1.899998
v -0.777856 0.260000 1.899998
v -0.670037 0.370000 1.927952
v -0.364927 -0.260000 0.953795
v -0.364927 0.260000 0.953795
v -0.302012 0.301189 0.912606
v -0.196904 0.370000 0.843795
v -0.301904 -0.260000 0.953795
v -0.301904 0.260000 0.953795
v -0.301904 0.301189 0.912606
v -0.969744 -0.260000 0.953795
v -0.969744 0.260000 0.953795
v -0.944555 0.370000 0.843795
vn 0.0018 -0.9305 0.3663
vn -0.4019 0.8771 0.2631
vn -0.1558 0.7161 0.6804
vn -0.7071 -0.0000 0.7071
vn 0.4082 0.8165 -0.4083
vn -0.4082 0.8165 -0.4082
vn -0.0000 1.0000 -0.0000
vn 0.2044 0.3702 0.9062
vn 0.4997 0.7329 0.4617
vn 0.1537 0.7158 0.6812
vn 0.7912 0.2210 -0.5702
vn -0.7881 -0.2092 -0.5789
vn -0.7912 0.2210 -0.5702
vn -0.5859 0.7598 0.2817
vn -0.2651 0.3688 0.8909
vn -0.1974 0.7219 0.6632
vn 0.7912 0.2209 0.5702
vn 0.7071 -0.0000 -0.7071
vn 0.7912 0.2210 0.5702
vn 0.7879 -0.2085 -0.5795
vn 0.7071 -0.0000 0.7071
vn -0.7912 0.2210 0.5702
vn 0.7881 -0.2092 0.5789
vn 0.9130 0.3715 -0.1684
vn 0.4997 0.7329 -0.4617
vn 0.6895 0.7130 -0.1272
vn -0.7879 -0.2085 0.5795
vn -0.7071 -0.0000 -0.7071
vn -0.7912 0.2209 -0.5702
vn 0.7879 -0.2085 -0.5794
vn -0.7879 -0.2085 0.5794
vn -0.4082 0.8165 0.4083
vn -0.9118 0.3712 0.1756
vn -0.6823 -0.3600 0.6363
vn -0.6798 0.3686 0.6340
vn 0.0701 0.9396 -0.3350
vn -0.5981 0.7107 -0.3704
vn -0.7887 0.3732 -0.4885
vn -0.0000 0.7071 -0.7071
vn 0.4019 0.8771 -0.2629
vn 0.1537 0.7158 -0.6812
vn -0.9118 0.3712 -0.1756
vn -0.9110 -0.3734 0.1754
vn -0.6798 0.3686 -0.6340
vn -0.9136 -0.3665 -0.1760
vn 0.2044 0.3702 -0.9062
vn -0.2072 -0.3724 -0.9046
vn -0.2074 0.3701 -0.9056
vn -0.4987 0.7314 -0.4651
vn -0.6880 0.7135 -0.1325
vn -0.6822 -0.3603 -0.6362
vn -0.1558 0.7161 -0.6804
vn 0.7300 -0.0243 0.6831
vn 0.6391 0.2490 0.7277
vn 0.6801 0.7115 0.1765
vn 0.6827 0.3687 -0.6308
vn 0.2049 -0.3649 -0.9082
vn 0.6853 -0.3599 -0.6332
vn -0.4987 0.7314 0.4651
vn -0.6880 0.7135 0.1325
vn 0.9150 -0.3664 -0.1687
vn 0.9130 0.3715 0.1684
vn 0.6827 0.3687 0.6308
vn 0.0411 0.9797 -0.1964
vn 0.0396 -0.9811 -0.1897
vn -0.5464 0.3696 -0.7516
vn -0.7900 -0.3694 -0.4893
vn -0.4094 0.7178 -0.5632
vn -0.1767 0.3711 -0.9116
vn -0.5477 -0.3635 -0.7536
vn -0.1333 0.7136 -0.6878
vn 0.2651 0.3688 -0.8909
vn -0.1768 -0.3702 -0.9120
vn 0.8361 0.3733 -0.4020
vn 0.2658 -0.3628 -0.8932
vn -0.2074 0.3701 0.9056
vn 0.2042 -0.3725 0.9053
vn 0.5859 0.7598 -0.2817
vn -0.7086 0.0091 -0.7056
vn 0.8983 0.3725 0.2332
vn 0.8401 -0.3618 -0.4040
vn 0.8976 -0.3743 0.2330
vn 0.3711 0.3680 0.8526
vn 0.6358 -0.2374 0.7344
vn 0.0051 0.6722 -0.7404
vn 0.4083 0.8165 0.4082
vn 0.1712 0.3714 0.9126
vn -0.0000 -1.0000 -0.0000
vn 0.6853 -0.3599 -0.6331
vn 0.9122 -0.3735 -0.1682
vn 0.6895 0.7130 0.1272
vn 0.9148 -0.3669 0.1687
vn 0.6852 -0.3602 0.6330
vn 0.4079 0.7187 0.5630
vn 0.5452 0.3694 0.7525
vn -0.2078 -0.3647 0.9076
vn -0.6822 -0.3600 0.6364
vn 0.4082 0.8165 0.4082
vn 0.7909 0.3734 0.4848
vn -0.0699 0.9397 0.3347
vn -0.9132 -0.3676 0.1759
vn -0.0473 -0.9727 0.2270
vn 0.6000 0.7105 0.3678
vn 0.7921 -0.3697 0.4856
vn 0.5467 -0.3631 0.7545
vn 0.1712 -0.3705 0.9129
vn -0.8361 0.3733 0.4020
vn -0.2658 -0.3628 0.8932
vn -0.0410 0.9797 0.1962
vn -0.8983 0.3725 -0.2329
vn -0.8402 -0.3618 0.4040
vn -0.6802 0.7115 -0.1763
vn -0.6393 0.2490 -0.7275
vn -0.8976 -0.3743 -0.2327
vn -0.6366 -0.2390 -0.7333
vn 0.1974 0.7219 -0.6632
vn -0.2079 -0.3647 0.9076
vn -0.4083 0.8165 -0.4082
vn -0.0000 -0.3827 -0.9239
vn -0.0000 0.7072 0.7071
vn 0.1292 0.7132 0.6889
vt 0.928571 0.521739
vt 0.904762 0.695652
vt 0.976190 1.000000
vt 0.750000 0.608696
vt 0.500000 1.000000
vt 0.750000 1.000000
vt 0.510204 0.000000
vt 0.122449 0.000000
vt 0.938776 0.000000
vt 0.061224 0.000000
vt 0.775510 0.000000
vt 0.653061 0.000000
vt 0.346939 0.000000
vt 0.306122 0.000000
vt 0.224490 0.000000
vt 0.595238 0.521739
vt 0.571429 1.000000
vt 0.595238 1.000000
vt 0.250000 0.521739
vt 0.000000 0.478261
vt 0.000000 0.521739
vt 0.857143 1.000000
vt 0.833333 0.521739
vt 0.833333 1.000000
vt 0.500000 0.521739
vt 0.250000 0.608696
vt 0.250000 0.478261
vt 0.500000 0.608696
vt 0.750000 0.521739
vt 0.500000 0.478261
vt 0.214286 0.521739
vt 0.190476 1.000000
vt 0.214286 1.000000
vt 1.000000 0.521739
vt 0.750000 0.478261
vt 0.666667 1.000000
vt 1.000000 0.608696
vt 1.000000 1.000000
vt 0.000000 0.608696
vt 0.023810 0.521739
vt 0.238095 0.521739
vt 0.261905 1.000000
vt 0.261905 0.521739
vt 0.428571 0.565217
vt 0.404762 1.000000
vt 0.476190 1.000000
vt 0.047619 0.521739
vt 0.023810 0.478261
vt 0.071429 0.521739
vt 0.047619 0.478261
vt 0.166667 0.521739
vt 0.095238 0.478261
vt 0.095238 0.521739
vt 0.071429 1.000000
vt 0.047619 1.000000
vt 0.071429 0.478261
vt 0.095238 1.000000
vt 0.404762 0.521739
vt 0.380952 1.000000
vt 0.190476 0.521739
vt 0.166667 0.478261
vt 0.166667 1.000000
vt 0.190476 0.478261
vt 0.000000 1.000000
vt 0.023810 1.000000
vt 0.214286 0.478261
vt 0.547619 0.521739
vt 0.571429 0.521739
vt 0.238095 1.000000
vt 0.238095 0.478261
vt 0.285714 0.521739
vt 0.261905 0.478261
vt 0.285714 1.000000
vt 0.309524 0.521739
vt 0.285714 0.478261
vt 0.309524 1.000000
vt 0.333333 0.521739
vt 0.309524 0.478261
vt 0.357143 0.521739
vt 0.333333 0.478261
vt 0.666667 0.521739
vt 0.595238 0.478261
vt 0.357143 1.000000
vt 0.380952 0.521739
vt 0.357143 0.478261
vt 0.380952 0.478261
vt 0.428571 0.521739
vt 0.404762 0.478261
vt 0.404762 0.565217
vt 0.250000 1.000000
vt 0.809524 0.521739
vt 0.476190 0.478261
vt 0.476190 0.521739
vt 0.976190 0.521739
vt 0.928571 0.478261
vt 0.523810 0.521739
vt 0.523810 0.478261
vt 0.547619 1.000000
vt 0.547619 0.478261
vt 0.571429 0.478261
vt 0.785714 1.000000
vt 0.785714 0.521739
vt 0.690476 0.521739
vt 0.666667 0.478261
vt 0.714286 0.521739
vt 0.690476 0.478261
vt 0.761905 0.521739
vt 0.738095 0.521739
vt 0.714286 0.478261
vt 0.690476 1.000000
vt 0.738095 0.478261
vt 0.761905 1.000000
vt 0.761905 0.478261
vt 0.785714 0.478261
vt 0.714286 1.000000
vt 0.809524 0.478261
vt 0.857143 0.521739
vt 0.833333 0.478261
vt 0.738095 1.000000
vt 0.880952 0.521739
vt 0.857143 0.478261
vt 0.880952 1.000000
vt 0.428571 0.478261
vt 0.904762 0.521739
vt 0.880952 0.478261
vt 0.904762 1.000000
vt 0.904762 0.478261
vt 0.333333 1.000000
vt 0.976190 0.478261
vt 0.928571 0.695652
vt 0.591837 0.000000
vt 0.571429 0.000000
vt 0.489796 0.000000
vt 0.469388 0.000000
vt 0.448980 0.000000
vt 0.428571 0.000000
vt 0.408163 0.000000
vt 0.387755 0.000000
vt 0.367347 0.000000
vt 0.081633 0.000000
vt 0.612245 0.000000
vt 0.795918 0.000000
vt 0.040816 0.000000
vt 0.020408 0.000000
vt 0.142857 0.000000
vt 0.102041 0.000000
vt 0.204082 0.000000
vt 0.183673 0.000000
vt 0.836735 0.000000
vt 0.816327 0.000000
vt 0.877551 0.000000
vt 0.857143 0.000000
vt 0.918367 0.000000
vt 0.897959 0.000000
vt 0.163265 0.000000
vt 1.000000 0.000000
vt 0.755102 0.000000
vt 0.734694 0.000000
vt 0.673469 0.000000
vt 0.632653 0.000000
vt 0.000000 0.000000
vt 0.326531 0.000000
vt 0.244898 0.000000
vt 1.000000 0.478261
vt 0.809524 1.000000
vt 0.523810 1.000000
s 1
usemtl マテリアル.024
f 180/1/1 177/2/2 184/3/3
f 57/4/4 54/5/5 58/6/6
s 0
f 24/7/7 7/8/7 41/9/7
f 4/10/7 33/11/7 29/12/7
f 16/13/7 14/14/7 12/15/7
s 1
f 143/16/8 141/17/9 144/18/10
f 48/19/11 43/20/12 44/21/13
f 171/22/14 167/23/15 168/24/16
f 70/5/5 68/25/17 65/26/18
f 52/25/19 47/27/20 48/19/11
f 53/28/21 48/19/11 49/26/18
f 56/29/22 51/30/23 52/25/19
f 97/31/24 95/32/25 98/33/26
f 44/34/13 55/35/27 56/29/22
f 147/36/3 143/16/8 144/18/10
f 45/37/28 56/29/22 57/4/4
f 64/19/11 59/20/12 60/21/29
f 68/25/17 63/27/30 64/19/11
f 72/29/22 67/30/23 68/25/17
f 60/34/29 71/35/31 72/29/22
f 62/38/32 60/34/29 73/4/4
f 49/26/18 44/21/13 45/39/28
f 79/40/33 75/20/34 76/21/35
f 100/41/36 104/42/37 103/43/38
f 126/44/39 123/45/40 129/46/41
f 82/47/42 78/48/43 79/40/33
f 85/49/44 81/50/45 82/47/42
f 91/51/46 87/52/47 88/53/48
f 86/54/49 82/47/42 83/55/50
f 88/53/48 84/56/51 85/49/44
f 57/4/4 52/25/19 53/28/21
f 88/53/48 86/54/49 89/57/52
f 73/4/4 68/25/17 69/28/53
f 121/58/54 119/59/55 123/45/40
f 94/60/56 90/61/57 91/51/46
f 95/32/25 91/51/46 92/62/41
f 97/31/24 93/63/58 94/60/56
f 79/40/33 77/64/59 80/65/60
f 100/41/36 96/66/61 97/31/24
f 137/67/62 141/17/9 140/68/63
f 100/41/36 98/33/26 101/69/64
f 103/43/38 99/70/65 100/41/36
f 106/71/66 102/72/67 103/43/38
f 107/73/68 103/43/38 104/42/37
f 109/74/69 105/75/70 106/71/66
f 109/74/69 107/73/68 110/76/71
f 112/77/72 108/78/73 109/74/69
f 115/79/74 111/80/75 112/77/72
f 146/81/76 142/82/77 143/16/8
f 112/77/72 116/83/78 115/79/74
f 65/26/18 60/21/29 61/39/79
f 118/84/80 114/85/81 115/79/74
f 121/58/54 117/86/82 118/84/80
f 118/84/80 116/83/78 119/59/55
f 125/87/83 120/88/84 121/58/54
f 122/89/85 125/87/83 121/58/54
f 65/26/18 62/64/32 66/90/86
f 164/91/87 168/24/16 167/23/15
f 131/25/56 127/92/57 128/93/46
f 183/94/76 179/95/88 180/1/1
f 134/96/24 130/30/89 131/25/56
f 91/51/46 89/57/52 92/62/41
f 132/5/25 134/96/24 131/25/56
f 137/67/62 133/97/90 134/96/24
f 134/96/24 138/98/91 137/67/62
f 140/68/63 136/99/92 137/67/62
f 128/93/46 132/5/25 131/25/56
f 143/16/8 139/100/93 140/68/63
f 162/101/94 164/91/87 161/102/95
f 149/103/35 145/104/96 146/81/76
f 152/105/33 148/106/97 149/103/35
f 49/26/18 46/64/32 50/90/98
f 158/107/99 162/101/94 161/102/95
f 79/40/33 83/55/50 82/47/42
f 155/108/100 151/109/101 152/105/33
f 146/81/76 150/110/59 149/103/35
f 158/107/99 154/111/102 155/108/100
f 155/108/100 159/112/103 158/107/99
f 161/102/95 157/113/104 158/107/99
f 164/91/87 160/114/105 161/102/95
f 152/105/33 150/110/59 153/115/60
f 167/23/15 163/116/106 164/91/87
f 170/117/107 166/118/108 167/23/15
f 155/108/100 153/115/60 156/119/109
f 173/120/110 169/121/111 170/117/107
f 173/120/110 171/22/14 174/122/112
f 128/93/46 124/123/88 125/87/83
f 176/124/113 172/125/114 173/120/110
f 173/120/110 178/126/2 177/2/2
f 180/1/1 175/127/115 176/124/113
f 109/74/69 113/128/116 112/77/72
f 76/34/35 182/129/117 183/94/76
f 183/94/76 77/38/59 76/34/35
f 73/4/4 70/5/5 74/6/118
f 184/3/3 183/94/76 180/1/1
f 180/1/119 181/130/120 177/2/120
f 177/2/2 178/126/2 184/3/3
f 57/4/4 53/28/21 54/5/5
s 0
f 26/131/7 25/132/7 24/7/7
f 24/7/7 23/133/7 22/134/7
f 22/134/7 21/135/7 20/136/7
f 20/136/7 19/137/7 18/138/7
f 17/139/7 16/13/7 5/140/7
f 20/136/7 18/138/7 17/139/7
f 24/7/7 22/134/7 20/136/7
f 27/141/7 26/131/7 24/7/7
f 34/142/7 3/143/7 2/144/7
f 2/144/7 27/141/7 24/7/7
f 24/7/7 20/136/7 17/139/7
f 17/139/7 5/140/7 8/145/7
f 7/8/7 6/146/7 11/147/7
f 24/7/7 17/139/7 8/145/7
f 7/8/7 11/147/7 10/148/7
f 24/7/7 8/145/7 7/8/7
f 34/142/7 2/144/7 24/7/7
f 36/149/7 35/150/7 34/142/7
f 38/151/7 37/152/7 36/149/7
f 40/153/7 39/154/7 38/151/7
f 9/155/7 42/156/7 41/9/7
f 41/9/7 40/153/7 38/151/7
f 38/151/7 36/149/7 34/142/7
f 7/8/7 10/148/7 9/155/7
f 41/9/7 38/151/7 34/142/7
f 7/8/7 9/155/7 41/9/7
f 41/9/7 34/142/7 24/7/7
f 3/143/7 34/142/7 33/11/7
f 33/11/7 32/157/7 31/158/7
f 31/158/7 30/159/7 29/12/7
f 29/12/7 28/160/7 27/141/7
f 27/141/7 2/144/7 1/161/7
f 4/10/7 3/143/7 33/11/7
f 27/141/7 1/161/7 4/10/7
f 33/11/7 31/158/7 29/12/7
f 29/12/7 27/141/7 4/10/7
f 12/15/7 11/147/7 6/146/7
f 6/146/7 5/140/7 16/13/7
f 16/13/7 15/162/7 14/14/7
f 14/14/7 13/163/7 12/15/7
f 12/15/7 6/146/7 16/13/7
s 1
f 143/16/8 140/68/63 141/17/9
f 48/19/11 47/27/20 43/20/12
f 171/22/14 170/117/107 167/23/15
f 65/26/18 66/90/86 70/5/5
f 70/5/5 69/28/53 68/25/17
f 68/25/17 64/19/11 65/26/18
f 52/25/19 51/30/23 47/27/20
f 49/26/18 50/90/98 54/5/5
f 53/28/21 52/25/19 48/19/11
f 49/26/18 54/5/5 53/28/21
f 56/29/22 55/35/27 51/30/23
f 97/31/24 94/60/56 95/32/25
f 44/34/13 43/164/12 55/35/27
f 147/36/3 146/81/76 143/16/8
f 57/4/4 58/6/6 46/38/32
f 45/37/28 44/34/13 56/29/22
f 57/4/4 46/38/32 45/37/28
f 64/19/11 63/27/30 59/20/12
f 68/25/17 67/30/23 63/27/30
f 72/29/22 71/35/31 67/30/23
f 60/34/29 59/164/12 71/35/31
f 73/4/4 74/6/118 62/38/32
f 62/38/32 61/37/79 60/34/29
f 60/34/29 72/29/22 73/4/4
f 49/26/18 48/19/11 44/21/13
f 79/40/33 78/48/43 75/20/34
f 100/41/36 101/69/64 104/42/37
f 129/46/41 128/93/46 125/87/83
f 126/44/39 122/89/85 123/45/40
f 129/46/41 125/87/83 126/44/39
f 82/47/42 81/50/45 78/48/43
f 85/49/44 84/56/51 81/50/45
f 91/51/46 90/61/57 87/52/47
f 86/54/49 85/49/44 82/47/42
f 88/53/48 87/52/47 84/56/51
f 57/4/4 56/29/22 52/25/19
f 88/53/48 85/49/44 86/54/49
f 73/4/4 72/29/22 68/25/17
f 123/45/40 122/89/85 121/58/54
f 121/58/54 118/84/80 119/59/55
f 94/60/56 93/63/58 90/61/57
f 95/32/25 94/60/56 91/51/46
f 97/31/24 96/66/61 93/63/58
f 79/40/33 76/21/35 77/64/59
f 100/41/36 99/70/65 96/66/61
f 137/67/62 138/98/91 141/17/9
f 100/41/36 97/31/24 98/33/26
f 103/43/38 102/72/67 99/70/65
f 106/71/66 105/75/70 102/72/67
f 107/73/68 106/71/66 103/43/38
f 109/74/69 108/78/73 105/75/70
f 109/74/69 106/71/66 107/73/68
f 112/77/72 111/80/75 108/78/73
f 115/79/74 114/85/81 111/80/75
f 146/81/76 145/104/96 142/82/77
f 112/77/72 113/128/116 116/83/78
f 65/26/18 64/19/11 60/21/29
f 118/84/80 117/86/82 114/85/81
f 121/58/54 120/88/84 117/86/82
f 118/84/80 115/79/74 116/83/78
f 125/87/83 124/123/88 120/88/84
f 122/89/85 126/44/39 125/87/83
f 65/26/18 61/39/79 62/64/32
f 164/91/87 165/165/121 168/24/16
f 131/25/56 130/30/89 127/92/57
f 183/94/76 182/129/117 179/95/88
f 134/96/24 133/97/90 130/30/89
f 91/51/46 88/53/48 89/57/52
f 132/5/25 135/166/26 134/96/24
f 137/67/62 136/99/92 133/97/90
f 134/96/24 135/166/26 138/98/91
f 140/68/63 139/100/93 136/99/92
f 128/93/46 129/46/41 132/5/25
f 143/16/8 142/82/77 139/100/93
f 162/101/94 165/165/121 164/91/87
f 149/103/35 148/106/97 145/104/96
f 152/105/33 151/109/101 148/106/97
f 49/26/18 45/39/28 46/64/32
f 158/107/99 159/112/103 162/101/94
f 79/40/33 80/65/60 83/55/50
f 155/108/100 154/111/102 151/109/101
f 146/81/76 147/36/3 150/110/59
f 158/107/99 157/113/104 154/111/102
f 155/108/100 156/119/109 159/112/103
f 161/102/95 160/114/105 157/113/104
f 164/91/87 163/116/106 160/114/105
f 152/105/33 149/103/35 150/110/59
f 167/23/15 166/118/108 163/116/106
f 170/117/107 169/121/111 166/118/108
f 155/108/100 152/105/33 153/115/60
f 173/120/110 172/125/114 169/121/111
f 173/120/110 170/117/107 171/22/14
f 128/93/46 127/92/57 124/123/88
f 176/124/113 175/127/115 172/125/114
f 177/2/2 176/124/113 173/120/110
f 173/120/110 174/122/112 178/126/2
f 180/1/1 179/95/88 175/127/115
f 180/1/1 176/124/113 177/2/2
f 109/74/69 110/76/71 113/128/116
f 76/34/35 75/164/34 182/129/117
f 183/94/76 184/3/3 77/38/59
f 73/4/4 69/28/53 70/5/5
