# Blender 4.2.1 LTS
# www.blender.org
mtllib fullStomach5.mtl
o 5
v 0.259979 0.370000 1.251265
v 0.259980 0.370000 1.034699
v -0.640624 0.370000 1.034699
v -0.684130 0.370000 1.013671
v -0.700201 0.370000 0.973492
v -0.700201 0.370000 -0.176504
v -0.684130 0.370000 -0.216683
v -0.640624 0.370000 -0.237711
v 0.624857 0.370000 -0.237711
v 0.665036 0.370000 -0.221639
v 0.686064 0.370000 -0.178133
v 0.686064 0.370000 0.405480
v 0.669992 0.370000 0.445659
v 0.626486 0.370000 0.466687
v 0.314497 0.370000 0.466687
v 0.270991 0.370000 0.445659
v 0.254919 0.370000 0.405480
v 0.254919 0.370000 0.193434
v -0.269057 0.370000 0.193434
v -0.269057 0.370000 0.603554
v 0.631547 0.370000 0.603554
v 0.675053 0.370000 0.624582
v 0.691124 0.370000 0.664761
v 0.691124 0.370000 1.621203
v 0.675053 0.370000 1.661382
v 0.631547 0.370000 1.682410
v -0.640260 0.370000 1.682410
v -0.680438 0.370000 1.666338
v -0.701466 0.370000 1.622832
v -0.701466 0.370000 1.310842
v -0.680438 0.370000 1.267336
v -0.640260 0.370000 1.251265
v 0.259979 -0.370000 1.251265
v 0.259980 -0.370000 1.034699
v -0.640624 -0.370000 1.034699
v -0.684130 -0.370000 1.013671
v -0.700201 -0.370000 0.973492
v -0.700201 -0.370000 -0.176504
v -0.684130 -0.370000 -0.216683
v -0.640624 -0.370000 -0.237711
v 0.624857 -0.370000 -0.237711
v 0.665036 -0.370000 -0.221639
v 0.686064 -0.370000 -0.178133
v 0.686064 -0.370000 0.405480
v 0.669992 -0.370000 0.445659
v 0.626486 -0.370000 0.466687
v 0.314497 -0.370000 0.466687
v 0.270991 -0.370000 0.445659
v 0.254919 -0.370000 0.405480
v 0.254919 -0.370000 0.193434
v -0.269057 -0.370000 0.193434
v -0.269057 -0.370000 0.603554
v 0.631547 -0.370000 0.603554
v 0.675053 -0.370000 0.624582
v 0.691124 -0.370000 0.664761
v 0.691124 -0.370000 1.621203
v 0.675053 -0.370000 1.661382
v 0.631547 -0.370000 1.682410
v -0.640260 -0.370000 1.682410
v -0.680438 -0.370000 1.666338
v -0.701466 -0.370000 1.622832
v -0.701466 -0.370000 1.310842
v -0.680438 -0.370000 1.267336
v -0.640260 -0.370000 1.251265
v 0.259979 -0.370000 1.251265
v 0.149980 -0.260000 1.141265
v 0.149980 0.260000 1.141265
v 0.259979 0.370000 1.251265
v 0.259980 -0.370000 1.034699
v 0.149980 -0.260000 1.144699
v 0.149980 0.260000 1.144699
v 0.259980 0.370000 1.034699
v -0.640624 -0.370000 1.034699
v -0.665813 -0.260000 1.144699
v -0.665813 0.260000 1.144699
v -0.640624 0.370000 1.034699
v -0.684130 -0.370000 1.013671
v -0.770415 -0.260000 1.094141
v -0.770415 0.260000 1.094141
v -0.684130 0.370000 1.013671
v -0.700201 -0.370000 0.973492
v -0.810201 -0.260000 0.994676
v -0.810201 0.260000 0.994676
v -0.700201 0.370000 0.973492
v -0.700201 -0.370000 -0.176504
v -0.810201 -0.260000 -0.197688
v -0.810201 0.260000 -0.197688
v -0.700201 0.370000 -0.176504
v -0.684130 -0.370000 -0.216683
v -0.770415 -0.260000 -0.297153
v -0.770415 0.260000 -0.297153
v -0.684130 0.370000 -0.216683
v -0.640624 -0.370000 -0.237711
v -0.665813 -0.260000 -0.347711
v -0.665813 0.260000 -0.347711
v -0.640624 0.370000 -0.237711
v 0.624857 -0.370000 -0.237711
v 0.646041 -0.260000 -0.347711
v 0.646041 0.260000 -0.347711
v 0.624857 0.370000 -0.237711
v 0.665036 -0.370000 -0.221639
v 0.745506 -0.260000 -0.307925
v 0.745506 0.260000 -0.307925
v 0.665036 0.370000 -0.221639
v 0.686064 -0.370000 -0.178133
v 0.796064 -0.260000 -0.203323
v 0.796064 0.260000 -0.203323
v 0.686064 0.370000 -0.178133
v 0.686064 -0.370000 0.405480
v 0.796064 -0.260000 0.426664
v 0.796064 0.260000 0.426664
v 0.686064 0.370000 0.405480
v 0.669992 -0.370000 0.445659
v 0.756278 -0.260000 0.526129
v 0.756278 0.260000 0.526129
v 0.669992 0.370000 0.445659
v 0.626486 -0.370000 0.466687
v 0.651676 -0.260000 0.576687
v 0.651676 0.260000 0.576687
v 0.626486 0.370000 0.466687
v 0.314497 -0.370000 0.466687
v 0.289307 -0.260000 0.576687
v 0.289307 0.260000 0.576687
v 0.314497 0.370000 0.466687
v 0.270991 -0.370000 0.445659
v 0.184705 -0.260000 0.526129
v 0.184705 0.260000 0.526129
v 0.270991 0.370000 0.445659
v 0.254919 -0.370000 0.405480
v 0.144919 -0.260000 0.426664
v 0.144919 0.260000 0.426664
v 0.254919 0.370000 0.405480
v 0.254919 -0.370000 0.193434
v 0.144919 -0.260000 0.303434
v 0.144919 0.260000 0.303434
v 0.254919 0.370000 0.193434
v -0.269057 -0.370000 0.193434
v -0.159057 -0.260000 0.303434
v -0.159057 0.260000 0.303434
v -0.269057 0.370000 0.193434
v -0.269057 -0.370000 0.603554
v -0.159057 -0.260000 0.493554
v -0.159057 0.260000 0.493554
v -0.269057 0.370000 0.603554
v 0.631547 -0.370000 0.603554
v 0.656736 -0.260000 0.493554
v 0.656736 0.260000 0.493554
v 0.631547 0.370000 0.603554
v 0.675053 -0.370000 0.624582
v 0.761338 -0.260000 0.544112
v 0.761338 0.260000 0.544112
v 0.675053 0.370000 0.624582
v 0.691124 -0.370000 0.664761
v 0.801124 -0.260000 0.643577
v 0.801124 0.260000 0.643577
v 0.691124 0.370000 0.664761
v 0.691124 -0.370000 1.621203
v 0.801124 -0.260000 1.642387
v 0.801124 0.260000 1.642387
v 0.691124 0.370000 1.621203
v 0.675053 -0.370000 1.661382
v 0.761338 -0.260000 1.741852
v 0.761338 0.260000 1.741852
v 0.675053 0.370000 1.661382
v 0.631547 -0.370000 1.682410
v 0.656736 -0.260000 1.792410
v 0.656736 0.260000 1.792410
v 0.631547 0.370000 1.682410
v -0.640260 -0.370000 1.682410
v -0.661444 -0.260000 1.792410
v -0.661444 0.260000 1.792410
v -0.640260 0.370000 1.682410
v -0.680438 -0.370000 1.666338
v -0.760909 -0.260000 1.752623
v -0.760909 0.260000 1.752623
v -0.680438 0.370000 1.666338
v -0.701466 -0.370000 1.622832
v -0.811466 -0.260000 1.648021
v -0.811466 0.260000 1.648021
v -0.701466 0.370000 1.622832
v -0.701466 -0.370000 1.310842
v -0.811466 -0.260000 1.285653
v -0.811466 0.260000 1.285653
v -0.701466 0.370000 1.310842
v -0.680438 -0.370000 1.267336
v -0.760909 -0.260000 1.181051
v -0.760909 0.260000 1.181051
v -0.680438 0.370000 1.267336
v -0.640260 -0.370000 1.251265
v -0.661444 -0.260000 1.141265
v -0.661444 0.260000 1.141265
v -0.640260 0.370000 1.251265
vn -0.2074 0.3701 -0.9056
vn -0.4987 0.7314 -0.4651
vn -0.1558 0.7161 -0.6804
vn 0.5702 -0.2210 0.7912
vn -0.1558 -0.7161 0.6804
vn -0.4082 -0.8165 0.4082
vn 0.1756 0.3712 -0.9118
vn 0.1325 0.7135 -0.6880
vn -0.0000 -1.0000 -0.0000
vn 0.5702 0.2209 0.7912
vn 0.5702 -0.2209 -0.7912
vn 0.5702 0.2210 -0.7912
vn -0.4082 0.8165 -0.4083
vn -0.4082 0.8165 0.4082
vn -0.1756 0.3712 0.9118
vn 0.2074 -0.3701 0.9056
vn 0.2074 0.3701 0.9056
vn -0.1558 0.7161 0.6804
vn 0.5789 -0.5743 0.5789
vn -0.4083 -0.8165 0.4082
vn -0.5789 -0.5743 0.5789
vn 0.4987 -0.7314 -0.4651
vn 0.9118 -0.3712 -0.1756
vn 0.6880 -0.7135 -0.1325
vn 0.9118 0.3712 -0.1756
vn 0.6880 0.7135 0.1325
vn 0.9118 0.3712 0.1756
vn -0.4987 -0.7314 0.4651
vn -0.2074 -0.3701 0.9056
vn -0.6798 -0.3686 0.6340
vn 0.4987 -0.7314 0.4651
vn 0.9118 -0.3712 0.1756
vn 0.6798 -0.3686 0.6340
vn -0.6798 0.3686 0.6340
vn -0.2074 0.3701 0.9056
vn -0.4987 0.7314 0.4651
vn -0.9118 -0.3712 0.1756
vn -0.9118 0.3712 0.1756
vn -0.6880 0.7135 0.1325
vn -0.9118 0.3712 -0.1756
vn -0.6798 0.3686 -0.6340
vn -0.9118 -0.3712 -0.1756
vn -0.6798 -0.3686 -0.6340
vn -0.1325 0.7135 -0.6880
vn -0.1756 0.3712 -0.9118
vn 0.2074 -0.3701 -0.9056
vn 0.6798 -0.3686 -0.6340
vn 0.4651 -0.7314 -0.4987
vn 0.1756 -0.3712 -0.9118
vn 0.6340 -0.3686 -0.6798
vn -0.1756 -0.3712 -0.9118
vn 0.6340 0.3686 -0.6798
vn 0.4651 0.7314 -0.4987
vn 0.9056 -0.3701 -0.2074
vn 0.6804 -0.7161 -0.1558
vn 0.9056 0.3701 -0.2074
vn -0.0000 1.0000 -0.0000
vn 0.4987 0.7314 0.4651
vn 0.1558 0.7161 0.6804
vn 0.6804 0.7161 -0.1558
vn 0.6798 0.3686 0.6340
vn -0.6880 0.7135 -0.1325
vn 0.1558 -0.7161 0.6804
vn 0.2074 0.3701 -0.9056
vn 0.5789 -0.5743 -0.5789
vn 0.5789 0.5743 -0.5789
vn -0.6880 -0.7135 0.1325
vn -0.5789 0.5743 0.5789
vn -0.9056 -0.3701 -0.2074
vn -0.4651 -0.7314 -0.4987
vn -0.6804 -0.7161 -0.1558
vn 0.5789 0.5743 0.5789
vn 0.4083 0.8165 0.4082
vn 0.4082 -0.8165 0.4083
vn 0.4082 -0.8165 -0.4082
vn 0.4082 0.8165 -0.4083
vn -0.2074 -0.3701 -0.9056
vn 0.1558 0.7161 -0.6804
vn 0.1558 -0.7161 -0.6804
vn 0.6798 0.3686 -0.6340
vn 0.4987 0.7314 -0.4651
vn -0.1325 -0.7135 -0.6880
vn -0.4082 -0.8165 -0.4083
vn 0.6880 -0.7135 0.1325
vn -0.4987 -0.7314 -0.4651
vn 0.6880 0.7135 -0.1325
vn -0.1558 -0.7161 -0.6804
vn 0.1325 -0.7135 -0.6880
vn -0.1325 0.7135 0.6880
vn -0.1756 -0.3712 0.9118
vn -0.4651 -0.7314 0.4987
vn -0.6340 -0.3686 0.6798
vn -0.6340 0.3686 0.6798
vn -0.4651 0.7314 0.4987
vn -0.9056 -0.3701 0.2074
vn -0.9056 0.3701 0.2074
vn -0.6804 -0.7161 0.1558
vn -0.6804 0.7161 -0.1558
vn -0.9056 0.3701 -0.2074
vn -0.6340 0.3686 -0.6798
vn -0.4651 0.7314 -0.4987
vn -0.6804 0.7161 0.1558
vn -0.6340 -0.3686 -0.6798
vn -0.6880 -0.7135 -0.1325
vn -0.1325 -0.7135 0.6880
vt 0.256410 0.521739
vt 0.230769 1.000000
vt 0.256410 1.000000
vt 0.051282 0.478261
vt 0.128205 0.000000
vt 0.051282 0.000000
vt 0.307692 0.521739
vt 0.307692 1.000000
vt 0.157895 0.000000
vt 0.210526 0.000000
vt 0.578947 0.000000
vt 0.051282 0.521739
vt 0.025641 0.478261
vt 0.025641 0.521739
vt 0.025641 1.000000
vt 0.051282 1.000000
vt 0.846154 0.521739
vt 0.769231 0.478261
vt 0.769231 0.521739
vt 0.128205 1.000000
vt 0.564103 0.478261
vt 0.538462 0.000000
vt 0.538462 0.478261
vt 0.666667 0.000000
vt 0.692308 0.478261
vt 0.692308 0.000000
vt 0.692308 0.521739
vt 0.717949 1.000000
vt 0.717949 0.521739
vt 0.153846 0.000000
vt 0.128205 0.478261
vt 0.153846 0.478261
vt 0.410256 0.000000
vt 0.384615 0.478261
vt 0.410256 0.478261
vt 0.153846 0.521739
vt 0.128205 0.521739
vt 0.153846 1.000000
vt 0.179487 0.478261
vt 0.179487 0.521739
vt 0.179487 1.000000
vt 0.205128 0.521739
vt 0.512821 0.521739
vt 0.487179 1.000000
vt 0.512821 1.000000
vt 0.230769 0.521739
vt 0.205128 0.478261
vt 0.230769 0.478261
vt 0.974359 1.000000
vt 0.974359 0.521739
vt 0.641026 0.478261
vt 0.666667 0.478261
vt 0.333333 0.000000
vt 0.307692 0.478261
vt 0.333333 0.478261
vt 0.974359 0.478261
vt 0.333333 0.521739
vt 0.333333 1.000000
vt 0.358974 0.478261
vt 0.358974 0.000000
vt 0.358974 0.521739
vt 0.184211 0.000000
vt 0.052632 0.000000
vt 0.605263 0.000000
vt 0.384615 0.521739
vt 0.743590 1.000000
vt 0.769231 1.000000
vt 0.358974 1.000000
vt 0.384615 1.000000
vt 0.410256 0.521739
vt 0.205128 1.000000
vt 0.410256 1.000000
vt 0.435897 0.521739
vt 0.435897 1.000000
vt 0.435897 0.000000
vt 0.461538 0.478261
vt 0.461538 0.000000
vt 0.461538 0.521739
vt 0.435897 0.478261
vt 0.461538 1.000000
vt 0.487179 0.000000
vt 0.487179 0.478261
vt 0.641026 0.521739
vt 0.589744 0.478261
vt 0.589744 0.521739
vt 0.487179 0.521739
vt 0.512821 0.478261
vt 0.512821 0.000000
vt 0.538462 0.521739
vt 0.538462 1.000000
vt 0.923077 0.478261
vt 0.948718 0.000000
vt 0.923077 0.000000
vt 0.564103 0.521739
vt 0.564103 1.000000
vt 0.564103 0.000000
vt 0.589744 0.000000
vt 0.589744 1.000000
vt 0.256410 0.478261
vt 0.641026 1.000000
vt 0.641026 0.000000
vt 0.666667 0.521739
vt 0.666667 1.000000
vt 0.974359 0.000000
vt 0.025641 0.000000
vt 0.743590 0.521739
vt 0.717949 0.000000
vt 0.717949 0.478261
vt 0.743590 0.000000
vt 0.230769 0.000000
vt 0.692308 1.000000
vt 0.743590 0.478261
vt 0.769231 0.000000
vt 0.256410 0.000000
vt 0.307692 0.000000
vt 0.846154 1.000000
vt 0.846154 0.478261
vt 0.871795 0.000000
vt 0.871795 0.478261
vt 0.384615 0.000000
vt 0.871795 0.521739
vt 0.871795 1.000000
vt 0.897436 0.478261
vt 0.897436 0.521739
vt 0.897436 0.000000
vt 0.923077 1.000000
vt 0.923077 0.521739
vt 0.948718 0.521739
vt 0.948718 1.000000
vt 0.897436 1.000000
vt 0.948718 0.478261
vt 0.179487 0.000000
vt 0.205128 0.000000
vt 0.947368 0.000000
vt 0.973684 0.000000
vt 1.000000 0.000000
vt 0.026316 0.000000
vt 0.894737 0.000000
vt 0.921053 0.000000
vt 0.789474 0.000000
vt 0.868421 0.000000
vt 0.736842 0.000000
vt 0.763158 0.000000
vt 0.684211 0.000000
vt 0.710526 0.000000
vt 0.657895 0.000000
vt 0.500000 0.000000
vt 0.526316 0.000000
vt 0.552632 0.000000
vt 0.447368 0.000000
vt 0.473684 0.000000
vt 0.394737 0.000000
vt 0.421053 0.000000
vt 0.342105 0.000000
vt 0.368421 0.000000
vt 0.263158 0.000000
vt 0.315789 0.000000
vt 0.236842 0.000000
vt 0.131579 0.000000
vt 0.846154 0.000000
s 1
usemtl マテリアル.028
f 95/1/1 92/2/2 96/3/3
f 70/4/4 73/5/5 69/6/6
f 99/7/7 96/3/3 100/8/8
s 0
f 36/9/9 38/10/9 51/11/9
s 1
f 71/12/10 66/13/11 67/14/12
f 71/12/10 68/15/13 72/16/14
f 171/17/15 166/18/16 167/19/17
f 76/20/18 71/12/10 72/16/14
f 138/21/19 133/22/20 134/23/21
f 149/24/22 154/25/23 153/26/24
f 155/27/25 160/28/26 159/29/27
f 77/30/28 74/31/29 78/32/30
f 113/33/31 110/34/32 114/35/33
f 79/36/34 74/31/29 75/37/35
f 75/37/35 80/38/36 79/36/34
f 82/39/37 77/30/28 78/32/30
f 83/40/38 78/32/30 79/36/34
f 83/40/38 80/38/36 84/41/39
f 87/42/40 82/39/37 83/40/38
f 131/43/38 128/44/36 132/45/39
f 91/46/41 86/47/42 87/42/40
f 87/42/40 92/2/2 91/46/41
f 95/1/1 90/48/43 91/46/41
f 192/49/44 67/14/12 191/50/45
f 149/24/22 146/51/46 150/52/47
f 101/53/48 98/54/49 102/55/50
f 67/14/12 190/56/51 191/50/45
f 103/57/52 98/54/49 99/7/7
f 99/7/7 104/58/53 103/57/52
f 101/53/48 106/59/54 105/60/55
f 107/61/56 102/55/50 103/57/52
s 0
f 5/62/57 2/63/57 20/64/57
s 1
f 111/65/27 106/59/54 107/61/56
f 167/19/17 164/66/58 168/67/59
f 111/65/27 108/68/60 112/69/26
f 115/70/61 110/34/32 111/65/27
f 87/42/40 84/41/39 88/71/62
f 111/65/27 116/72/58 115/70/61
f 119/73/17 114/35/33 115/70/61
f 119/73/17 116/72/58 120/74/59
f 117/75/63 122/76/29 121/77/5
f 123/78/35 118/79/16 119/73/17
f 119/73/17 124/80/18 123/78/35
f 125/81/28 122/76/29 126/82/30
f 147/83/64 142/84/65 143/85/66
f 127/86/34 122/76/29 123/78/35
f 123/78/35 128/44/36 127/86/34
f 125/81/28 130/87/37 129/88/67
f 131/43/38 126/82/30 127/86/34
f 135/89/68 130/87/37 131/43/38
f 135/89/68 132/45/39 136/90/14
f 129/88/67 134/23/21 133/22/20
f 182/91/69 185/92/70 181/93/71
f 139/94/72 134/23/21 135/89/68
f 135/89/68 140/95/73 139/94/72
f 137/96/74 142/84/65 141/97/75
f 143/85/66 138/21/19 139/94/72
f 75/37/35 70/4/4 71/12/10
f 139/94/72 144/98/76 143/85/66
f 99/7/7 94/99/77 95/1/1
f 143/85/66 148/100/78 147/83/64
f 145/101/79 142/84/65 146/51/46
f 151/102/80 146/51/46 147/83/64
f 147/83/64 152/103/81 151/102/80
f 189/104/82 66/13/11 65/105/83
f 155/27/25 150/52/47 151/102/80
f 159/29/27 164/66/58 163/106/61
f 159/29/27 154/25/23 155/27/25
f 154/25/23 157/107/84 153/26/24
f 158/108/32 161/109/31 157/107/84
f 163/106/61 158/108/32 159/29/27
f 89/110/85 86/47/42 90/48/43
f 155/27/25 152/103/81 156/111/86
f 167/19/17 162/112/33 163/106/61
f 161/109/31 166/18/16 165/113/63
f 93/114/87 98/54/49 97/115/88
f 171/17/15 168/67/59 172/116/89
f 170/117/90 165/113/63 166/18/16
f 107/61/56 104/58/53 108/68/60
f 173/118/91 170/117/90 174/119/92
f 105/60/55 110/34/32 109/120/84
f 175/121/93 170/117/90 171/17/15
f 176/122/94 171/17/15 172/116/89
f 178/123/95 173/118/91 174/119/92
f 179/124/96 174/119/92 175/121/93
f 177/125/97 182/91/69 181/93/71
f 179/124/96 184/126/98 183/127/99
f 183/127/99 178/123/95 179/124/96
f 113/33/31 118/79/16 117/75/63
f 69/6/6 66/13/11 70/4/4
f 187/128/100 182/91/69 183/127/99
f 183/127/99 188/129/101 187/128/100
f 179/124/96 176/122/94 180/130/102
f 190/56/51 185/92/70 186/131/103
f 191/50/45 186/131/103 187/128/100
f 191/50/45 188/129/101 192/49/44
f 81/132/67 86/47/42 85/133/104
f 89/110/85 94/99/77 93/114/87
f 95/1/1 91/46/41 92/2/2
f 70/4/4 74/31/29 73/5/5
f 99/7/7 95/1/1 96/3/3
s 0
f 62/134/9 63/135/9 64/136/9
f 62/134/9 64/136/9 33/137/9
f 60/138/9 61/139/9 62/134/9
f 58/140/9 59/141/9 60/138/9
f 56/142/9 57/143/9 58/140/9
f 54/144/9 55/145/9 56/142/9
f 52/64/9 53/146/9 54/144/9
f 54/144/9 56/142/9 58/140/9
f 58/140/9 60/138/9 62/134/9
f 58/140/9 62/134/9 33/137/9
f 48/147/9 49/148/9 50/149/9
f 46/150/9 47/151/9 48/147/9
f 44/152/9 45/153/9 46/150/9
f 42/154/9 43/155/9 44/152/9
f 40/156/9 41/157/9 42/154/9
f 38/10/9 39/158/9 40/156/9
f 36/9/9 37/62/9 38/10/9
f 34/63/9 35/159/9 36/9/9
f 58/140/9 33/137/9 34/63/9
f 46/150/9 48/147/9 50/149/9
f 42/154/9 44/152/9 46/150/9
f 38/10/9 40/156/9 42/154/9
f 54/144/9 58/140/9 34/63/9
f 52/64/9 54/144/9 34/63/9
f 42/154/9 46/150/9 50/149/9
f 42/154/9 50/149/9 51/11/9
f 52/64/9 34/63/9 36/9/9
f 38/10/9 42/154/9 51/11/9
f 51/11/9 52/64/9 36/9/9
s 1
f 71/12/10 70/4/4 66/13/11
f 71/12/10 67/14/12 68/15/13
f 171/17/15 170/117/90 166/18/16
f 76/20/18 75/37/35 71/12/10
f 138/21/19 137/96/74 133/22/20
f 149/24/22 150/52/47 154/25/23
f 155/27/25 156/111/86 160/28/26
f 77/30/28 73/5/5 74/31/29
f 113/33/31 109/120/84 110/34/32
f 79/36/34 78/32/30 74/31/29
f 75/37/35 76/20/18 80/38/36
f 82/39/37 81/132/67 77/30/28
f 83/40/38 82/39/37 78/32/30
f 83/40/38 79/36/34 80/38/36
f 87/42/40 86/47/42 82/39/37
f 131/43/38 127/86/34 128/44/36
f 91/46/41 90/48/43 86/47/42
f 87/42/40 88/71/62 92/2/2
f 95/1/1 94/99/77 90/48/43
f 192/49/44 68/15/13 67/14/12
f 149/24/22 145/101/79 146/51/46
f 101/53/48 97/115/88 98/54/49
f 67/14/12 66/13/11 190/56/51
f 103/57/52 102/55/50 98/54/49
f 99/7/7 100/8/8 104/58/53
f 101/53/48 102/55/50 106/59/54
f 107/61/56 106/59/54 102/55/50
s 0
f 17/148/57 16/147/57 15/151/57
f 15/151/57 14/150/57 13/153/57
f 13/153/57 12/152/57 11/155/57
f 11/155/57 10/154/57 9/157/57
f 9/157/57 8/156/57 7/158/57
f 7/158/57 6/10/57 5/62/57
f 5/62/57 4/9/57 3/159/57
f 5/62/57 3/159/57 2/63/57
f 11/155/57 9/157/57 7/158/57
f 15/151/57 13/153/57 11/155/57
f 18/149/57 17/148/57 15/151/57
f 18/149/57 15/151/57 11/155/57
f 1/137/57 32/136/57 31/135/57
f 31/135/57 30/134/57 29/139/57
f 29/139/57 28/138/57 27/141/57
f 27/141/57 26/140/57 25/143/57
f 25/143/57 24/142/57 23/145/57
f 23/145/57 22/144/57 21/146/57
f 23/145/57 21/146/57 20/64/57
f 29/139/57 27/141/57 25/143/57
f 1/137/57 31/135/57 29/139/57
f 1/137/57 29/139/57 25/143/57
f 19/11/57 18/149/57 11/155/57
f 2/63/57 1/137/57 25/143/57
f 19/11/57 11/155/57 7/158/57
f 2/63/57 25/143/57 23/145/57
f 20/64/57 19/11/57 7/158/57
f 2/63/57 23/145/57 20/64/57
f 20/64/57 7/158/57 5/62/57
s 1
f 111/65/27 110/34/32 106/59/54
f 167/19/17 163/106/61 164/66/58
f 111/65/27 107/61/56 108/68/60
f 115/70/61 114/35/33 110/34/32
f 87/42/40 83/40/38 84/41/39
f 111/65/27 112/69/26 116/72/58
f 119/73/17 118/79/16 114/35/33
f 119/73/17 115/70/61 116/72/58
f 117/75/63 118/79/16 122/76/29
f 123/78/35 122/76/29 118/79/16
f 119/73/17 120/74/59 124/80/18
f 125/81/28 121/77/5 122/76/29
f 147/83/64 146/51/46 142/84/65
f 127/86/34 126/82/30 122/76/29
f 123/78/35 124/80/18 128/44/36
f 125/81/28 126/82/30 130/87/37
f 131/43/38 130/87/37 126/82/30
f 135/89/68 134/23/21 130/87/37
f 135/89/68 131/43/38 132/45/39
f 129/88/67 130/87/37 134/23/21
f 182/91/69 186/131/103 185/92/70
f 139/94/72 138/21/19 134/23/21
f 135/89/68 136/90/14 140/95/73
f 137/96/74 138/21/19 142/84/65
f 143/85/66 142/84/65 138/21/19
f 75/37/35 74/31/29 70/4/4
f 139/94/72 140/95/73 144/98/76
f 99/7/7 98/54/49 94/99/77
f 143/85/66 144/98/76 148/100/78
f 145/101/79 141/97/75 142/84/65
f 151/102/80 150/52/47 146/51/46
f 147/83/64 148/100/78 152/103/81
f 189/104/82 190/56/51 66/13/11
f 155/27/25 154/25/23 150/52/47
f 159/29/27 160/28/26 164/66/58
f 159/29/27 158/108/32 154/25/23
f 154/25/23 158/108/32 157/107/84
f 158/108/32 162/112/33 161/109/31
f 163/106/61 162/112/33 158/108/32
f 89/110/85 85/133/104 86/47/42
f 155/27/25 151/102/80 152/103/81
f 167/19/17 166/18/16 162/112/33
f 161/109/31 162/112/33 166/18/16
f 93/114/87 94/99/77 98/54/49
f 171/17/15 167/19/17 168/67/59
f 170/117/90 169/160/105 165/113/63
f 107/61/56 103/57/52 104/58/53
f 173/118/91 169/160/105 170/117/90
f 105/60/55 106/59/54 110/34/32
f 175/121/93 174/119/92 170/117/90
f 176/122/94 175/121/93 171/17/15
f 178/123/95 177/125/97 173/118/91
f 179/124/96 178/123/95 174/119/92
f 177/125/97 178/123/95 182/91/69
f 179/124/96 180/130/102 184/126/98
f 183/127/99 182/91/69 178/123/95
f 113/33/31 114/35/33 118/79/16
f 69/6/6 65/105/83 66/13/11
f 187/128/100 186/131/103 182/91/69
f 183/127/99 184/126/98 188/129/101
f 179/124/96 175/121/93 176/122/94
f 190/56/51 189/104/82 185/92/70
f 191/50/45 190/56/51 186/131/103
f 191/50/45 187/128/100 188/129/101
f 81/132/67 82/39/37 86/47/42
f 89/110/85 90/48/43 94/99/77
